<?xml version="1.0" encoding="UTF-8" standalone="no"?>
<!-- Created with Inkscape (http://www.inkscape.org/) -->

<svg
   xmlns:dc="http://purl.org/dc/elements/1.1/"
   xmlns:cc="http://creativecommons.org/ns#"
   xmlns:rdf="http://www.w3.org/1999/02/22-rdf-syntax-ns#"
   xmlns:svg="http://www.w3.org/2000/svg"
   xmlns="http://www.w3.org/2000/svg"
   xmlns:sodipodi="http://sodipodi.sourceforge.net/DTD/sodipodi-0.dtd"
   xmlns:inkscape="http://www.inkscape.org/namespaces/inkscape"
   width="181.04556mm"
   height="378.57394mm"
   viewBox="0 0 641.50003 1341.4037"
   id="svg2"
   version="1.1"
   inkscape:version="0.91 r13725"
   sodipodi:docname="equalopportunityrealtor.svg">
  <defs
     id="defs4">
    <pattern
       y="0"
       x="0"
       height="6"
       width="6"
       patternUnits="userSpaceOnUse"
       id="EMFhbasepattern" />
  </defs>
  <sodipodi:namedview
     id="base"
     pagecolor="#ffffff"
     bordercolor="#666666"
     borderopacity="1.0"
     inkscape:pageopacity="0.0"
     inkscape:pageshadow="2"
     inkscape:zoom="0.35"
     inkscape:cx="1122.893"
     inkscape:cy="422.90073"
     inkscape:document-units="px"
     inkscape:current-layer="layer1"
     showgrid="true"
     fit-margin-top="0"
     fit-margin-left="0"
     fit-margin-right="0"
     fit-margin-bottom="0"
     inkscape:window-width="1920"
     inkscape:window-height="1018"
     inkscape:window-x="-8"
     inkscape:window-y="-8"
     inkscape:window-maximized="1">
    <inkscape:grid
       type="xygrid"
       id="grid3433"
       originx="1077.8931"
       originy="-97.099276" />
  </sodipodi:namedview>
  <metadata
     id="metadata7">
    <rdf:RDF>
      <cc:Work
         rdf:about="">
        <dc:format>image/svg+xml</dc:format>
        <dc:type
           rdf:resource="http://purl.org/dc/dcmitype/StillImage" />
        <dc:title></dc:title>
      </cc:Work>
    </rdf:RDF>
  </metadata>
  <g
     inkscape:label="Layer 1"
     inkscape:groupmode="layer"
     id="layer1"
     transform="translate(1077.893,386.14081)">
    <g
       id="g3435">
      <path
         style="fill:#000000;fill-opacity:1;fill-rule:nonzero;stroke:none"
         d="m -638.30595,202.00669 c -15.2108,-2.39433 -27.32356,-13.37993 -31.26666,-28.59071 -1.40862,-5.21111 -1.69009,-14.50658 -0.56558,-19.57688 0.27947,-1.83095 1.83049,-5.77449 3.23912,-8.73219 2.11261,-4.50682 3.23912,-6.05603 7.74647,-10.42213 8.02792,-8.028 15.49226,-11.12652 26.7593,-11.12652 11.12665,0 19.43471,3.23945 27.04011,10.84478 7.6054,7.3237 11.12598,15.49252 11.68956,25.91475 0.70398,14.08402 -4.64774,26.05556 -15.06974,34.08346 -3.94377,3.09852 -10.2816,6.05613 -14.50483,6.90114 -4.36629,0.98594 -11.2677,1.26758 -15.0704,0.7043 z m 16.33732,-8.59127 c 9.71601,-3.66191 17.03996,-11.97154 19.71616,-22.67541 1.1265,-4.22517 1.1265,-12.11235 0,-16.19671 -1.83116,-7.18288 -7.46501,-14.92914 -13.80285,-19.0135 -7.32195,-4.64774 -17.60288,-6.05613 -25.34935,-3.38016 -15.06974,5.07029 -24.22484,21.12609 -21.12612,36.6186 2.6762,13.66157 12.39421,23.52042 25.63281,26.19639 3.38017,0.56358 10.98558,-0.28154 14.92935,-1.54921 z m -377.73301,-30.56248 0,-38.02711 13.09819,0 c 18.30879,0 23.09765,1.26758 28.87184,7.32381 11.54918,12.39399 6.76042,34.50591 -8.45036,38.44956 -1.54911,0.28143 -2.9577,0.70419 -2.9577,0.70419 -0.13969,0.14103 1.97218,3.80262 4.78876,8.30964 4.36568,7.04196 11.54857,18.59094 12.67573,20.56271 0.41918,0.56358 -0.56563,0.7042 -3.94374,0.7042 l -4.50671,0 -11.12663,-17.88675 c -6.05572,-9.99977 -10.9856,-18.16848 -10.9856,-18.3093 0,-0.14113 2.53514,-0.42256 5.7749,-0.56359 4.08415,-0.14112 6.47827,-0.56358 8.30943,-1.40839 9.71803,-4.3661 11.83062,-17.04173 4.3663,-25.21055 -3.94385,-4.36599 -6.05643,-4.92937 -18.45063,-5.07029 l -9.85844,0 -0.13969,34.22428 -0.1398,34.22438 -3.66231,0 -3.66159,0 0,-38.027 z m 76.61691,0 0,-38.02711 19.71749,0 19.71749,0 0,3.6619 0,3.66191 -16.05585,0 -16.05585,0 0,13.52075 0,13.52064 16.05585,0 16.05585,0 0,3.66191 0,3.6619 -16.05585,0 -16.05585,0 0,13.52064 0,13.52075 16.05585,0 16.05585,0 0,3.6618 0,3.66191 -19.71749,0 -19.71749,0 0,-38.027 z m 59.85646,37.3228 c 0.13973,-0.42256 6.61929,-17.18255 14.50682,-37.3228 7.7458,-20.14026 14.36576,-36.90025 14.50616,-37.32281 0.13974,-0.42256 1.69009,-0.7043 4.78881,-0.7043 l 4.64775,0 2.11261,5.49286 c 1.12651,2.9576 7.6054,19.71769 14.22403,37.04116 6.76037,17.32337 12.39421,31.97087 12.53528,32.53425 0.27946,0.84502 -0.13974,0.98584 -3.6623,0.98584 l -3.9431,0 -2.11261,-5.49286 c -1.26758,-2.9576 -3.23979,-8.30953 -4.50736,-11.68969 l -2.39407,-6.19705 -16.90023,-0.14103 -16.9009,-0.14102 -2.11261,5.21111 c -0.98611,2.81679 -3.09872,8.16872 -4.36629,11.6898 l -2.53513,6.47869 -4.08416,0.14102 c -3.09805,0.14103 -4.08416,0 -3.8027,-0.56358 z m 47.60397,-30.7033 c -0.56559,-2.25351 -13.52072,-35.91441 -13.80218,-36.33687 -0.27946,-0.28153 -0.84504,0.56359 -1.26757,1.69003 -0.42585,1.12676 -3.52124,9.57721 -6.90142,18.59105 -3.23912,9.01373 -6.05571,16.61917 -6.05571,16.75999 0,0.14102 6.33784,0.28143 14.08364,0.28143 13.23925,0 14.22536,0 13.94324,-0.98583 z m 41.82905,-6.6195 0,-38.02711 3.66231,0 3.66164,0 0,34.3652 0,34.3652 13.52072,0 13.52072,0 0,3.6618 0,3.66191 -17.18237,0 -17.18302,0 0,-38.027 z m 64.08301,3.80261 -0.13973,-34.22428 -7.46501,-0.14102 -7.46433,-0.14113 0,-3.6618 0,-3.66179 18.87244,0 18.87311,0 0,3.66179 0,3.6618 -7.46501,0.14113 -7.46433,0.14102 -0.13974,34.22428 -0.13973,34.22439 -3.66163,0 -3.66232,0 -0.13973,-34.22439 z m 141.54302,-3.80261 0,-38.02711 13.09819,0 c 18.30953,0 23.09768,1.26758 28.87259,7.32381 11.54851,12.39399 6.76036,34.64683 -8.45045,38.44956 -1.54969,0.28143 -2.95765,0.70419 -2.95765,0.70419 -0.13973,0.14103 3.66163,6.47869 8.45044,14.22495 4.78815,7.60534 8.87298,14.22484 9.01338,14.6474 0.41918,0.56358 -0.56558,0.7042 -3.9431,0.7042 l -4.50736,0 -11.12598,-17.88675 c -6.05637,-9.85885 -10.98558,-18.16848 -10.98558,-18.3093 0,-0.14113 2.53513,-0.42256 5.77425,-0.56359 6.6193,-0.28153 9.71802,-1.40839 12.81674,-4.50691 5.77424,-5.63367 5.77424,-15.77416 -0.13973,-22.11203 -3.94377,-4.36599 -6.05638,-4.92937 -18.4506,-5.07029 l -9.8584,0 -0.13974,34.22428 -0.13973,34.22438 -3.6623,0 -3.66165,0 0,-38.027 z m 54.50539,-25.35137 c -3.38017,-1.12676 -5.91531,-3.38016 -7.46434,-6.76043 -1.26757,-2.67586 -1.54969,-3.6618 -1.26757,-6.90114 0.27946,-5.07019 2.25302,-8.59128 6.33784,-11.12642 2.39407,-1.54922 3.23911,-1.69004 7.04181,-1.69004 3.80271,0 4.64776,0.14102 7.04183,1.69004 4.08455,2.53514 6.19717,6.05623 6.33803,11.26724 0.28147,3.6619 0.14107,4.50691 -1.26756,7.04206 -0.98592,1.69013 -2.39434,3.52098 -3.38018,4.22528 -3.80291,2.9576 -9.15463,3.80272 -13.37986,2.25341 z m 9.01404,-1.69013 c 5.49252,-2.25341 8.73183,-8.45046 7.46427,-13.66147 -1.83089,-7.46462 -9.57688,-11.68991 -16.19685,-8.87301 -5.49279,2.39432 -8.73191,8.30963 -7.46434,13.9433 1.69009,7.04196 9.71801,11.26724 16.19692,8.59118 z m -10.00014,-11.54888 0,-8.0279 5.07026,0.28143 c 5.91532,0.14103 7.32395,0.98594 7.32395,4.50692 0,1.69003 -0.27947,2.25341 -1.54903,3.09852 -0.84504,0.42246 -1.69009,0.98584 -1.69009,0.98584 -0.13973,0.14112 0.56558,1.69013 1.54903,3.6619 l 1.69009,3.38016 -1.40863,0 c -1.12651,0 -1.69009,-0.56358 -3.09805,-3.38016 -1.5497,-2.95771 -1.83116,-3.38016 -3.38019,-3.38016 -1.69009,0 -1.69009,0 -1.69009,3.38016 0,3.23924 0,3.38016 -1.40862,3.38016 l -1.40863,0 0,-7.88708 z m 8.87296,-1.40839 c 2.81727,-1.97177 0.56558,-4.78866 -3.66163,-4.78866 l -2.39408,0 0,2.81689 0,2.81678 2.39408,0 c 1.40862,0 2.95765,-0.42256 3.66163,-0.84501 z m -495.05123,-267.03236 0,-241.96262 241.9623,0 241.96295,0 0,241.96262 0,241.962621 -241.96295,0 -241.9623,0 0,-241.962621 z m 446.17969,181.401118 c 0,-0.281452 -188.58407,-181.682778 -189.00658,-181.682778 -0.4192,0 -0.27947,181.119391 0.13973,181.541919 0.4192,0.422517 188.86553,0.563582 188.86553,0.141064 z m -241.1179,-183.091208 0,-182.80981 -68.4473,0 -68.44869,0 0,182.38728 c 0,100.41955 0.1398,182.668693 0.41928,182.809491 0.13969,0.281463 30.98517,0.422528 68.4486,0.422528 l 68.02477,0 0,-182.809489 z m 111.12339,-0.28146 c 28.309,-4.36602 53.09743,-20.28108 67.4612,-43.6606 5.21133,-8.45046 9.57696,-20.28055 11.68956,-30.98448 1.5497,-8.59104 1.40863,-26.05512 -0.27946,-34.08305 -8.02793,-37.04097 -35.77135,-64.22307 -73.65797,-71.82828 -6.76036,-1.40836 -7.32328,-1.40836 -35.77334,-1.40836 l -28.73153,0 0,91.26404 0,91.26411 27.60502,0 c 17.04129,0 29.29445,-0.28146 31.68919,-0.56358 z"
         id="path3341"
         inkscape:connector-curvature="0" />
      <g
         id="g4651"
         transform="translate(-1117.143,-20.04359)">
        <g
           id="g4611">
          <g
             id="g4572">
            <g
               id="g3470"
               transform="translate(20.75,-39.999998)">
              <g
                 id="g3457">
                <g
                   id="g3445">
                  <g
                     id="g3434">
                    <g
                       id="g3424">
                      <g
                         id="g3415">
                        <g
                           id="g3407">
                          <g
                             transform="translate(-61,-399.44098)"
                             id="g3384">
                            <path
                               style="fill:none;fill-rule:evenodd;stroke:#000000;stroke-width:1px;stroke-linecap:butt;stroke-linejoin:miter;stroke-opacity:1"
                               d="m 80.5,952.92122 0,79.99998 40,0 0,240 560,0 0,-240 40,0 0,-79.99998 -320,-160 z"
                               id="path3378"
                               inkscape:connector-curvature="0" />
                            <path
                               style="fill:#000000;fill-rule:evenodd;stroke:#000000;stroke-width:1px;stroke-linecap:butt;stroke-linejoin:miter;stroke-opacity:1"
                               d="m 80,1032.3622 320,-160 320,160 0,-80 -320,-160 -320,160 z"
                               id="path3380"
                               inkscape:connector-curvature="0" />
                            <path
                               style="fill:#000000;fill-rule:evenodd;stroke:#000000;stroke-width:1px;stroke-linecap:butt;stroke-linejoin:miter;stroke-opacity:1"
                               d="m 80,1032.3622 0,-80 100,0 0,260 440,0 0,-260 100,0 0,80 -40,0 0,240 -560,0 0,-240 z"
                               id="path3382"
                               inkscape:connector-curvature="0" />
                          </g>
                          <path
                             inkscape:connector-curvature="0"
                             id="path3389"
                             d="m 220,762.3622 240,0 0,-60 -240,0 z"
                             style="fill:#000000;fill-rule:evenodd;stroke:#000000;stroke-width:1px;stroke-linecap:butt;stroke-linejoin:miter;stroke-opacity:1" />
                          <path
                             inkscape:connector-curvature="0"
                             id="path3391"
                             d="m 220,662.3622 0,-60 240,0 0,60 z"
                             style="fill:#000000;fill-rule:evenodd;stroke:#000000;stroke-width:1px;stroke-linecap:butt;stroke-linejoin:miter;stroke-opacity:1" />
                        </g>
                      </g>
                    </g>
                  </g>
                </g>
              </g>
            </g>
            <g
               style="font-style:normal;font-weight:normal;font-size:70px;line-height:100%;font-family:sans-serif;text-align:center;letter-spacing:0px;word-spacing:0px;text-anchor:middle;fill:#000000;fill-opacity:1;stroke:none;stroke-width:1px;stroke-linecap:butt;stroke-linejoin:miter;stroke-opacity:1"
               id="text3499">
              <path
                 inkscape:connector-curvature="0"
                 d="m 71.079102,853.28503 32.265628,0 0,5.81055 -25.361332,0 0,15.10742 24.301762,0 0,5.81055 -24.301762,0 0,18.49121 25.976562,0 0,5.81055 -32.880858,0 0,-51.03028 z"
                 style="font-weight:normal"
                 id="path4526" />
              <path
                 inkscape:connector-curvature="0"
                 d="m 136.08887,857.96765 q -7.51953,0 -11.96289,5.60547 -4.40918,5.60547 -4.40918,15.27832 0,9.63867 4.40918,15.24414 4.44336,5.60547 11.96289,5.60547 7.51953,0 11.89453,-5.60547 4.40918,-5.60547 4.40918,-15.24414 0,-9.67285 -4.40918,-15.27832 -4.375,-5.60547 -11.89453,-5.60547 z m 9.67285,45.42481 9.0918,9.94629 -8.33985,0 -7.55371,-8.16895 q -1.12793,0.0684 -1.74316,0.10254 -0.58106,0.0342 -1.12793,0.0342 -10.7666,0 -17.22657,-7.17774 -6.42578,-7.21191 -6.42578,-19.27734 0,-12.09961 6.42578,-19.27734 6.45997,-7.21192 17.22657,-7.21192 10.73242,0 17.1582,7.21192 6.42578,7.17773 6.42578,19.27734 0,8.88672 -3.58887,15.20996 -3.55468,6.32324 -10.32226,9.33106 z"
                 style="font-weight:normal"
                 id="path4528" />
              <path
                 inkscape:connector-curvature="0"
                 d="m 169.6875,853.28503 6.93848,0 0,31.00098 q 0,8.20313 2.97363,11.82617 2.97363,3.58887 9.63867,3.58887 6.63086,0 9.60449,-3.58887 2.97364,-3.62304 2.97364,-11.82617 l 0,-31.00098 6.93847,0 0,31.85547 q 0,9.98047 -4.95605,15.07325 -4.92188,5.09277 -14.56055,5.09277 -9.67285,0 -14.62891,-5.09277 -4.92187,-5.09278 -4.92187,-15.07325 l 0,-31.85547 z"
                 style="font-weight:normal"
                 id="path4530" />
              <path
                 inkscape:connector-curvature="0"
                 d="m 238.79883,860.08679 -9.36524,25.39551 18.76465,0 -9.39941,-25.39551 z m -3.89649,-6.80176 7.82715,0 19.44824,51.03028 -7.17773,0 -4.64844,-13.09082 -23.00293,0 -4.64843,13.09082 -7.28028,0 19.48242,-51.03028 z"
                 style="font-weight:normal"
                 id="path4532" />
              <path
                 inkscape:connector-curvature="0"
                 d="m 269.59473,853.28503 6.90429,0 0,45.21973 24.84864,0 0,5.81055 -31.75293,0 0,-51.03028 z"
                 style="font-weight:normal"
                 id="path4534" />
              <path
                 inkscape:connector-curvature="0"
                 d="m 330.84473,853.28503 6.90429,0 0,20.91797 25.08789,0 0,-20.91797 6.9043,0 0,51.03028 -6.9043,0 0,-24.30176 -25.08789,0 0,24.30176 -6.90429,0 0,-51.03028 z"
                 style="font-weight:normal"
                 id="path4536" />
              <path
                 inkscape:connector-curvature="0"
                 d="m 404.19434,857.96765 q -7.51954,0 -11.96289,5.60547 -4.40918,5.60547 -4.40918,15.27832 0,9.63867 4.40918,15.24414 4.44335,5.60547 11.96289,5.60547 7.51953,0 11.89453,-5.60547 4.40918,-5.60547 4.40918,-15.24414 0,-9.67285 -4.40918,-15.27832 -4.375,-5.60547 -11.89453,-5.60547 z m 0,-5.60547 q 10.73242,0 17.1582,7.21192 6.42578,7.17773 6.42578,19.27734 0,12.06543 -6.42578,19.27734 -6.42578,7.17774 -17.1582,7.17774 -10.76661,0 -17.22657,-7.17774 -6.42578,-7.17773 -6.42578,-19.27734 0,-12.09961 6.42578,-19.27734 6.45996,-7.21192 17.22657,-7.21192 z"
                 style="font-weight:normal"
                 id="path4538" />
              <path
                 inkscape:connector-curvature="0"
                 d="m 437.79297,853.28503 6.93848,0 0,31.00098 q 0,8.20313 2.97363,11.82617 2.97363,3.58887 9.63867,3.58887 6.63086,0 9.60449,-3.58887 2.97363,-3.62304 2.97363,-11.82617 l 0,-31.00098 6.93848,0 0,31.85547 q 0,9.98047 -4.95605,15.07325 -4.92188,5.09277 -14.56055,5.09277 -9.67285,0 -14.62891,-5.09277 -4.92187,-5.09278 -4.92187,-15.07325 l 0,-31.85547 z"
                 style="font-weight:normal"
                 id="path4540" />
              <path
                 inkscape:connector-curvature="0"
                 d="m 520.43945,854.95984 0,6.7334 q -3.93066,-1.87989 -7.41699,-2.80274 -3.48633,-0.92285 -6.7334,-0.92285 -5.63965,0 -8.71582,2.1875 -3.04199,2.1875 -3.04199,6.2207 0,3.38379 2.0166,5.12696 2.05078,1.70898 7.72461,2.76855 l 4.16992,0.85449 q 7.72461,1.46973 11.38184,5.19532 3.6914,3.6914 3.6914,9.91211 0,7.41699 -4.99023,11.24511 -4.95605,3.82813 -14.56055,3.82813 -3.62304,0 -7.72461,-0.82031 -4.06738,-0.82032 -8.44238,-2.42676 l 0,-7.10938 q 4.2041,2.3584 8.23731,3.55469 4.0332,1.19629 7.92968,1.19629 5.91309,0 9.12598,-2.32422 3.21289,-2.32422 3.21289,-6.63086 0,-3.75976 -2.32422,-5.8789 -2.29004,-2.11915 -7.55371,-3.17872 l -4.2041,-0.82031 q -7.72461,-1.53808 -11.17676,-4.81933 -3.45215,-3.28125 -3.45215,-9.12598 0,-6.76758 4.75098,-10.66406 4.78516,-3.89649 13.15918,-3.89649 3.58887,0 7.31445,0.64942 3.72559,0.64941 7.62207,1.94824 z"
                 style="font-weight:normal"
                 id="path4542" />
              <path
                 inkscape:connector-curvature="0"
                 d="m 534.28223,853.28503 6.90429,0 0,51.03028 -6.90429,0 0,-51.03028 z"
                 style="font-weight:normal"
                 id="path4544" />
              <path
                 inkscape:connector-curvature="0"
                 d="m 554.92676,853.28503 9.29687,0 22.62696,42.69043 0,-42.69043 6.69921,0 0,51.03028 -9.29687,0 -22.62695,-42.69043 0,42.69043 -6.69922,0 0,-51.03028 z"
                 style="font-weight:normal"
                 id="path4546" />
              <path
                 inkscape:connector-curvature="0"
                 d="m 642.08496,897.03503 0,-13.70605 -11.2793,0 0,-5.67383 18.11524,0 0,21.90918 q -3.99903,2.83692 -8.81836,4.30664 -4.81934,1.43555 -10.28809,1.43555 -11.96289,0 -18.73047,-6.97266 -6.73339,-7.00683 -6.73339,-19.48242 0,-12.50977 6.73339,-19.48242 6.76758,-7.00684 18.73047,-7.00684 4.99024,0 9.46778,1.23047 4.51172,1.23047 8.30566,3.62305 l 0,7.34863 q -3.82812,-3.24707 -8.13477,-4.88769 -4.30664,-1.64063 -9.05761,-1.64063 -9.36524,0 -14.08203,5.22949 -4.68262,5.2295 -4.68262,15.58594 0,10.32227 4.68262,15.55176 4.71679,5.22949 14.08203,5.22949 3.65722,0 6.52832,-0.61523 2.87109,-0.64942 5.16113,-1.98243 z"
                 style="font-weight:normal"
                 id="path4548" />
              <path
                 inkscape:connector-curvature="0"
                 d="m 141.55762,927.96765 q -7.51953,0 -11.96289,5.60547 -4.40918,5.60547 -4.40918,15.27832 0,9.63867 4.40918,15.24414 4.44336,5.60547 11.96289,5.60547 7.51953,0 11.89453,-5.60547 4.40918,-5.60547 4.40918,-15.24414 0,-9.67285 -4.40918,-15.27832 -4.375,-5.60547 -11.89453,-5.60547 z m 0,-5.60547 q 10.73242,0 17.1582,7.21192 6.42578,7.17773 6.42578,19.27734 0,12.06543 -6.42578,19.27734 -6.42578,7.17774 -17.1582,7.17774 -10.7666,0 -17.22657,-7.17774 -6.42578,-7.17773 -6.42578,-19.27734 0,-12.09961 6.42578,-19.27734 6.45997,-7.21192 17.22657,-7.21192 z"
                 style="font-weight:normal"
                 id="path4550" />
              <path
                 inkscape:connector-curvature="0"
                 d="m 182.84668,928.95886 0,19.17481 8.68164,0 q 4.81934,0 7.45117,-2.49512 2.63184,-2.49512 2.63184,-7.10938 0,-4.58007 -2.63184,-7.07519 -2.63183,-2.49512 -7.45117,-2.49512 l -8.68164,0 z m -6.9043,-5.67383 15.58594,0 q 8.5791,0 12.9541,3.89649 4.40918,3.8623 4.40918,11.34765 0,7.55372 -4.40918,11.41602 -4.375,3.86231 -12.9541,3.86231 l -8.68164,0 0,20.50781 -6.9043,0 0,-51.03028 z"
                 style="font-weight:normal"
                 id="path4552" />
              <path
                 inkscape:connector-curvature="0"
                 d="m 225.09277,928.95886 0,19.17481 8.68164,0 q 4.81934,0 7.45118,-2.49512 2.63183,-2.49512 2.63183,-7.10938 0,-4.58007 -2.63183,-7.07519 -2.63184,-2.49512 -7.45118,-2.49512 l -8.68164,0 z m -6.90429,-5.67383 15.58593,0 q 8.57911,0 12.95411,3.89649 4.40918,3.8623 4.40918,11.34765 0,7.55372 -4.40918,11.41602 -4.375,3.86231 -12.95411,3.86231 l -8.68164,0 0,20.50781 -6.90429,0 0,-51.03028 z"
                 style="font-weight:normal"
                 id="path4554" />
              <path
                 inkscape:connector-curvature="0"
                 d="m 281.14746,927.96765 q -7.51953,0 -11.96289,5.60547 -4.40918,5.60547 -4.40918,15.27832 0,9.63867 4.40918,15.24414 4.44336,5.60547 11.96289,5.60547 7.51953,0 11.89453,-5.60547 4.40918,-5.60547 4.40918,-15.24414 0,-9.67285 -4.40918,-15.27832 -4.375,-5.60547 -11.89453,-5.60547 z m 0,-5.60547 q 10.73242,0 17.1582,7.21192 6.42579,7.17773 6.42579,19.27734 0,12.06543 -6.42579,19.27734 -6.42578,7.17774 -17.1582,7.17774 -10.7666,0 -17.22656,-7.17774 -6.42578,-7.17773 -6.42578,-19.27734 0,-12.09961 6.42578,-19.27734 6.45996,-7.21192 17.22656,-7.21192 z"
                 style="font-weight:normal"
                 id="path4556" />
              <path
                 inkscape:connector-curvature="0"
                 d="m 339.73145,950.38953 q 2.22167,0.75195 4.30664,3.21289 2.11914,2.46093 4.23828,6.76758 l 7.00683,13.94531 -7.41699,0 -6.52832,-13.09082 q -2.5293,-5.12696 -4.92187,-6.80176 -2.3584,-1.67481 -6.45997,-1.67481 l -7.51953,0 0,21.56739 -6.90429,0 0,-51.03028 15.58593,0 q 8.75,0 13.05664,3.65723 4.30665,3.65723 4.30665,11.04004 0,4.81934 -2.25586,7.99805 -2.22168,3.17871 -6.49414,4.40918 z m -17.29493,-21.43067 0,18.11524 8.68164,0 q 4.99024,0 7.51954,-2.29004 2.56347,-2.32422 2.56347,-6.80176 0,-4.47754 -2.56347,-6.7334 -2.5293,-2.29004 -7.51954,-2.29004 l -8.68164,0 z"
                 style="font-weight:normal"
                 id="path4558" />
              <path
                 inkscape:connector-curvature="0"
                 d="m 352.07031,923.28503 43.16895,0 0,5.81055 -18.11524,0 0,45.21973 -6.93847,0 0,-45.21973 -18.11524,0 0,-5.81055 z"
                 style="font-weight:normal"
                 id="path4560" />
              <path
                 inkscape:connector-curvature="0"
                 d="m 401.15234,923.28503 6.93848,0 0,31.00098 q 0,8.20313 2.97363,11.82617 2.97364,3.58887 9.63867,3.58887 6.63086,0 9.6045,-3.58887 2.97363,-3.62304 2.97363,-11.82617 l 0,-31.00098 6.93848,0 0,31.85547 q 0,9.98047 -4.95606,15.07325 -4.92187,5.09277 -14.56055,5.09277 -9.67285,0 -14.6289,-5.09277 -4.92188,-5.09278 -4.92188,-15.07325 l 0,-31.85547 z"
                 style="font-weight:normal"
                 id="path4562" />
              <path
                 inkscape:connector-curvature="0"
                 d="m 453.20801,923.28503 9.29687,0 22.62696,42.69043 0,-42.69043 6.69921,0 0,51.03028 -9.29687,0 -22.62695,-42.69043 0,42.69043 -6.69922,0 0,-51.03028 z"
                 style="font-weight:normal"
                 id="path4564" />
              <path
                 inkscape:connector-curvature="0"
                 d="m 505.57129,923.28503 6.9043,0 0,51.03028 -6.9043,0 0,-51.03028 z"
                 style="font-weight:normal"
                 id="path4566" />
              <path
                 inkscape:connector-curvature="0"
                 d="m 519.14062,923.28503 43.16895,0 0,5.81055 -18.11523,0 0,45.21973 -6.93848,0 0,-45.21973 -18.11524,0 0,-5.81055 z"
                 style="font-weight:normal"
                 id="path4568" />
              <path
                 inkscape:connector-curvature="0"
                 d="m 562.00195,923.28503 7.417,0 14.15039,20.98633 14.04785,-20.98633 7.41699,0 -18.04688,26.72852 0,24.30176 -6.93847,0 0,-24.30176 -18.04688,-26.72852 z"
                 style="font-weight:normal"
                 id="path4570" />
            </g>
          </g>
        </g>
      </g>
    </g>
  </g>
</svg>
