<?xml version="1.0" encoding="UTF-8" standalone="no"?>
<!-- Created with Inkscape (http://www.inkscape.org/) -->

<svg
   xmlns:dc="http://purl.org/dc/elements/1.1/"
   xmlns:cc="http://creativecommons.org/ns#"
   xmlns:rdf="http://www.w3.org/1999/02/22-rdf-syntax-ns#"
   xmlns:svg="http://www.w3.org/2000/svg"
   xmlns="http://www.w3.org/2000/svg"
   xmlns:sodipodi="http://sodipodi.sourceforge.net/DTD/sodipodi-0.dtd"
   xmlns:inkscape="http://www.inkscape.org/namespaces/inkscape"
   width="141.90181mm"
   height="37.677845mm"
   viewBox="0 0 141.90181 37.677845"
   version="1.1"
   id="svg736"
   inkscape:version="0.92.0 r15299"
   sodipodi:docname="paulbrown.svg">
  <defs
     id="defs730" />
  <sodipodi:namedview
     id="base"
     pagecolor="#ffffff"
     bordercolor="#666666"
     borderopacity="1.0"
     inkscape:pageopacity="0.0"
     inkscape:pageshadow="2"
     inkscape:zoom="0.35"
     inkscape:cx="265.30354"
     inkscape:cy="21.708523"
     inkscape:document-units="mm"
     inkscape:current-layer="layer1"
     showgrid="true"
     inkscape:window-width="681"
     inkscape:window-height="696"
     inkscape:window-x="676"
     inkscape:window-y="0"
     inkscape:window-maximized="0"
     fit-margin-top="5"
     fit-margin-left="5"
     fit-margin-right="5"
     fit-margin-bottom="3">
    <inkscape:grid
       type="xygrid"
       id="grid771"
       originx="-35.638453"
       originy="-142.42298" />
  </sodipodi:namedview>
  <metadata
     id="metadata733">
    <rdf:RDF>
      <cc:Work
         rdf:about="">
        <dc:format>image/svg+xml</dc:format>
        <dc:type
           rdf:resource="http://purl.org/dc/dcmitype/StillImage" />
        <dc:title />
      </cc:Work>
    </rdf:RDF>
  </metadata>
  <g
     inkscape:label="Layer 1"
     inkscape:groupmode="layer"
     id="layer1"
     transform="translate(-35.63844,-116.89923)">
    <g
       id="g728"
       transform="translate(1032.8651,1156.5368)">
      <g
         aria-label="YOUR FRIENDLY DOWNRIVER REALTOR"
         style="font-style:italic;font-variant:normal;font-weight:normal;font-stretch:normal;font-size:7.4083333px;line-height:6.61458349px;font-family:Cambria;-inkscape-font-specification:'Cambria, Italic';font-variant-ligatures:normal;font-variant-caps:normal;font-variant-numeric:normal;font-feature-settings:normal;text-align:start;letter-spacing:0px;word-spacing:0px;writing-mode:lr-tb;text-anchor:start;fill:#000000;fill-opacity:1;stroke:none;stroke-width:0.26458332"
         id="text17-8-6">
        <path
           d="m -988.79288,-1013.0158 -0.0398,0.1772 q -0.15192,0.014 -0.23151,0.091 -0.0796,0.072 -0.0796,0.2279 0,0.2206 0.10129,0.5787 l 0.38344,1.3638 0.88986,-1.1901 q 0.19896,-0.2641 0.28578,-0.4124 0.0904,-0.1519 0.1266,-0.2677 0.0289,-0.087 0.0289,-0.1664 0,-0.1013 -0.0687,-0.1555 -0.0687,-0.054 -0.19895,-0.069 l 0.0398,-0.1772 h 1.3565 l -0.0398,0.1772 q -0.0868,0.018 -0.15192,0.054 -0.0615,0.033 -0.1447,0.1085 -0.0796,0.076 -0.22066,0.246 -0.13746,0.1664 -0.3545,0.4486 l -1.40715,1.8267 -0.22427,1.0237 q -0.0326,0.1447 -0.047,0.2279 -0.0109,0.08 -0.0217,0.1737 -0.007,0.09 -0.007,0.1627 0,0.1122 0.0362,0.1773 0.0362,0.061 0.10852,0.09 0.0723,0.029 0.24959,0.043 l -0.0398,0.1773 h -1.5229 l 0.0398,-0.1773 q 0.14469,-0.022 0.21342,-0.058 0.0687,-0.036 0.11938,-0.1121 0.0543,-0.076 0.1049,-0.2387 0.0543,-0.1628 0.12661,-0.492 l 0.21342,-0.9984 -0.52452,-1.8267 q -0.11937,-0.4197 -0.1881,-0.568 -0.0687,-0.1483 -0.14831,-0.2098 -0.076,-0.062 -0.20257,-0.08 l 0.0398,-0.1772 z"
           style="font-style:italic;font-variant:normal;font-weight:normal;font-stretch:normal;font-size:7.4083333px;font-family:Cambria;-inkscape-font-specification:'Cambria, Italic';font-variant-ligatures:normal;font-variant-caps:normal;font-variant-numeric:normal;font-feature-settings:normal;text-align:start;writing-mode:lr-tb;text-anchor:start;fill:#000000;stroke-width:0.26458332"
           id="path15" />
        <path
           d="m -984.02521,-1013.0737 q 0.44855,0 0.77412,0.1736 0.32917,0.1737 0.50281,0.5282 0.17725,0.3545 0.17725,0.8754 0,0.5607 -0.19172,1.2624 -0.19172,0.6982 -0.55707,1.2118 -0.36174,0.5101 -0.82838,0.7597 -0.46664,0.246 -0.97668,0.246 -0.50643,0 -0.83923,-0.1954 -0.32918,-0.1953 -0.48472,-0.5426 -0.15555,-0.3509 -0.15555,-0.8247 0,-0.4594 0.13023,-1.0274 0.13384,-0.5715 0.36173,-1.0309 0.23151,-0.4594 0.54622,-0.7813 0.31833,-0.322 0.709,-0.4884 0.39068,-0.1664 0.83199,-0.1664 z m 0.76688,1.4253 q 0,-1.107 -0.80667,-1.107 -0.19534,0 -0.36897,0.065 -0.20257,0.08 -0.38705,0.2351 -0.20619,0.1772 -0.38344,0.4521 -0.20981,0.3256 -0.36536,0.7416 -0.16278,0.4341 -0.26045,0.9369 -0.094,0.4811 -0.094,0.8718 0,0.5643 0.20258,0.8428 0.20618,0.2749 0.61133,0.2749 0.32556,0 0.61856,-0.1989 0.36174,-0.2424 0.65113,-0.7705 0.31109,-0.5679 0.4811,-1.3855 0.10129,-0.4811 0.10129,-0.9585 z"
           style="font-style:italic;font-variant:normal;font-weight:normal;font-stretch:normal;font-size:7.4083333px;font-family:Cambria;-inkscape-font-specification:'Cambria, Italic';font-variant-ligatures:normal;font-variant-caps:normal;font-variant-numeric:normal;font-feature-settings:normal;text-align:start;writing-mode:lr-tb;text-anchor:start;fill:#000000;stroke-width:0.26458332"
           id="path17" />
        <path
           d="m -981.51115,-1012.8386 0.0398,-0.1772 h 1.45418 l -0.0398,0.1772 q -0.13746,0.029 -0.19896,0.065 -0.0579,0.036 -0.10852,0.1085 -0.047,0.072 -0.0977,0.2279 -0.047,0.1519 -0.12299,0.4992 l -0.45217,2.0257 q -0.047,0.2062 -0.076,0.3943 -0.0253,0.1845 -0.0253,0.3834 0,0.3943 0.19172,0.5969 0.19533,0.2025 0.58601,0.2025 0.36897,0 0.61495,-0.1519 0.24598,-0.1519 0.39429,-0.4377 0.14831,-0.2858 0.2496,-0.7415 l 0.50281,-2.2754 q 0.0362,-0.1627 0.0579,-0.3183 0.0217,-0.1555 0.0217,-0.264 0,-0.1701 -0.0868,-0.2352 -0.0868,-0.069 -0.26768,-0.08 l 0.0398,-0.1772 h 1.37459 l -0.0398,0.1772 q -0.13384,0.029 -0.19895,0.069 -0.0615,0.036 -0.11214,0.1085 -0.047,0.072 -0.094,0.2279 -0.047,0.1555 -0.12299,0.4956 l -0.47026,2.1668 q -0.14107,0.6475 -0.3979,1.0309 -0.25684,0.3834 -0.64389,0.5535 -0.38344,0.17 -0.94051,0.17 -0.62581,0 -0.9586,-0.3003 -0.3328,-0.3038 -0.3328,-0.8826 0,-0.2026 0.0398,-0.463 0.0434,-0.2641 0.11938,-0.5933 l 0.3762,-1.6857 q 0.0434,-0.1917 0.0615,-0.34 0.0217,-0.1519 0.0217,-0.2423 0,-0.1628 -0.0832,-0.2316 -0.0832,-0.072 -0.27492,-0.083 z"
           style="font-style:italic;font-variant:normal;font-weight:normal;font-stretch:normal;font-size:7.4083333px;font-family:Cambria;-inkscape-font-specification:'Cambria, Italic';font-variant-ligatures:normal;font-variant-caps:normal;font-variant-numeric:normal;font-feature-settings:normal;text-align:start;writing-mode:lr-tb;text-anchor:start;fill:#000000;stroke-width:0.26458332"
           id="path19" />
        <path
           d="m -974.83714,-1010.3173 q 0.17364,0.1303 0.27854,0.3111 0.10852,0.1809 0.17363,0.5028 l 0.0832,0.4197 q 0.0253,0.1302 0.0543,0.2423 0.0326,0.1122 0.0724,0.2171 0.0434,0.1012 0.0904,0.1627 0.0506,0.062 0.1049,0.1013 0.0579,0.04 0.12661,0.065 0.0723,0.022 0.18087,0.04 l -0.0362,0.1773 h -1.00201 q -0.11576,-0.322 -0.20619,-0.7669 l -0.15916,-0.7669 q -0.0398,-0.1989 -0.0977,-0.3328 -0.0543,-0.1374 -0.13384,-0.2098 -0.076,-0.076 -0.18087,-0.098 -0.10129,-0.025 -0.2496,-0.025 h -0.41238 l -0.25321,1.1467 q -0.0326,0.1411 -0.047,0.2243 -0.0109,0.083 -0.0217,0.1773 -0.007,0.09 -0.007,0.1627 0,0.1122 0.0362,0.1773 0.0362,0.061 0.10852,0.09 0.0723,0.029 0.2496,0.043 l -0.0398,0.1773 h -1.48673 l 0.0398,-0.1773 q 0.13746,-0.022 0.20618,-0.069 0.0687,-0.051 0.11576,-0.1375 0.047,-0.087 0.0868,-0.2098 0.0398,-0.1266 0.11937,-0.4847 l 0.61495,-2.7854 q 0.0796,-0.3617 0.0796,-0.5715 0,-0.1772 -0.0832,-0.246 -0.0832,-0.069 -0.2713,-0.08 l 0.0398,-0.1772 h 1.60972 q 0.38344,0 0.6258,0.047 0.24237,0.043 0.41238,0.1339 0.17363,0.09 0.28939,0.2351 0.11575,0.1411 0.17363,0.3219 0.0579,0.1773 0.0579,0.3799 0,0.3219 -0.10852,0.5715 -0.1049,0.2496 -0.28939,0.4377 -0.18448,0.1881 -0.43046,0.3183 -0.24237,0.1302 -0.51367,0.2134 z m -0.81752,-0.2713 q 0.39429,0 0.65474,-0.076 0.26045,-0.08 0.43408,-0.2388 0.17364,-0.1591 0.28577,-0.4196 0.11214,-0.2604 0.11214,-0.5643 0,-0.1555 -0.0289,-0.2749 -0.0289,-0.123 -0.076,-0.2026 -0.047,-0.08 -0.11937,-0.1411 -0.0724,-0.062 -0.18087,-0.1049 -0.10852,-0.047 -0.25322,-0.065 -0.14107,-0.022 -0.38705,-0.022 -0.19172,0 -0.40514,0.014 l -0.46303,2.0944 z"
           style="font-style:italic;font-variant:normal;font-weight:normal;font-stretch:normal;font-size:7.4083333px;font-family:Cambria;-inkscape-font-specification:'Cambria, Italic';font-variant-ligatures:normal;font-variant-caps:normal;font-variant-numeric:normal;font-feature-settings:normal;text-align:start;writing-mode:lr-tb;text-anchor:start;fill:#000000;stroke-width:0.26458332"
           id="path21" />
        <path
           d="m -970.39865,-1009.1308 q -0.0253,0.1085 -0.0398,0.1845 -0.0145,0.076 -0.0253,0.1881 -0.0109,0.1085 -0.0109,0.1917 0,0.1122 0.0362,0.1773 0.0362,0.061 0.10852,0.09 0.0724,0.029 0.2496,0.043 l -0.0398,0.1773 h -1.48673 l 0.0398,-0.1773 q 0.13746,-0.022 0.20619,-0.069 0.0687,-0.051 0.11575,-0.1375 0.047,-0.087 0.0868,-0.2098 0.0398,-0.1266 0.11937,-0.4847 l 0.61495,-2.7854 q 0.0796,-0.3617 0.0796,-0.5715 0,-0.1772 -0.0832,-0.246 -0.0832,-0.069 -0.2713,-0.08 l 0.0398,-0.1772 h 3.26285 l -0.24959,1.1105 h -0.34727 q -0.0145,-0.2568 -0.0398,-0.4015 -0.0253,-0.1483 -0.0651,-0.2207 -0.0362,-0.072 -0.0832,-0.1049 -0.047,-0.036 -0.11938,-0.051 -0.0687,-0.014 -0.19895,-0.014 h -1.11414 l -0.43047,1.9679 h 0.67645 q 0.15916,0 0.26406,-0.043 0.10491,-0.043 0.19534,-0.1555 0.0904,-0.1158 0.22428,-0.3907 h 0.32917 l -0.35088,1.5266 h -0.31833 q 0,-0.2243 -0.0109,-0.3509 -0.007,-0.1266 -0.0434,-0.1773 -0.0326,-0.051 -0.0977,-0.069 -0.0615,-0.022 -0.2279,-0.022 h -0.709 z"
           style="font-style:italic;font-variant:normal;font-weight:normal;font-stretch:normal;font-size:7.4083333px;font-family:Cambria;-inkscape-font-specification:'Cambria, Italic';font-variant-ligatures:normal;font-variant-caps:normal;font-variant-numeric:normal;font-feature-settings:normal;text-align:start;writing-mode:lr-tb;text-anchor:start;fill:#000000;stroke-width:0.26458332"
           id="path23" />
        <path
           d="m -964.9256,-1010.3173 q 0.17364,0.1303 0.27854,0.3111 0.10852,0.1809 0.17363,0.5028 l 0.0832,0.4197 q 0.0253,0.1302 0.0543,0.2423 0.0326,0.1122 0.0724,0.2171 0.0434,0.1012 0.0904,0.1627 0.0506,0.062 0.1049,0.1013 0.0579,0.04 0.12661,0.065 0.0724,0.022 0.18087,0.04 l -0.0362,0.1773 h -1.00201 q -0.11576,-0.322 -0.20619,-0.7669 l -0.15916,-0.7669 q -0.0398,-0.1989 -0.0977,-0.3328 -0.0543,-0.1374 -0.13384,-0.2098 -0.076,-0.076 -0.18087,-0.098 -0.10129,-0.025 -0.2496,-0.025 h -0.41238 l -0.25321,1.1467 q -0.0326,0.1411 -0.047,0.2243 -0.0109,0.083 -0.0217,0.1773 -0.007,0.09 -0.007,0.1627 0,0.1122 0.0362,0.1773 0.0362,0.061 0.10852,0.09 0.0724,0.029 0.2496,0.043 l -0.0398,0.1773 h -1.48673 l 0.0398,-0.1773 q 0.13746,-0.022 0.20618,-0.069 0.0687,-0.051 0.11576,-0.1375 0.047,-0.087 0.0868,-0.2098 0.0398,-0.1266 0.11937,-0.4847 l 0.61495,-2.7854 q 0.0796,-0.3617 0.0796,-0.5715 0,-0.1772 -0.0832,-0.246 -0.0832,-0.069 -0.2713,-0.08 l 0.0398,-0.1772 h 1.60972 q 0.38344,0 0.6258,0.047 0.24237,0.043 0.41238,0.1339 0.17363,0.09 0.28939,0.2351 0.11575,0.1411 0.17363,0.3219 0.0579,0.1773 0.0579,0.3799 0,0.3219 -0.10852,0.5715 -0.1049,0.2496 -0.28939,0.4377 -0.18448,0.1881 -0.43046,0.3183 -0.24237,0.1302 -0.51367,0.2134 z m -0.81752,-0.2713 q 0.39429,0 0.65474,-0.076 0.26045,-0.08 0.43408,-0.2388 0.17364,-0.1591 0.28577,-0.4196 0.11214,-0.2604 0.11214,-0.5643 0,-0.1555 -0.0289,-0.2749 -0.0289,-0.123 -0.076,-0.2026 -0.047,-0.08 -0.11937,-0.1411 -0.0724,-0.062 -0.18087,-0.1049 -0.10852,-0.047 -0.25322,-0.065 -0.14107,-0.022 -0.38705,-0.022 -0.19172,0 -0.40514,0.014 l -0.46303,2.0944 z"
           style="font-style:italic;font-variant:normal;font-weight:normal;font-stretch:normal;font-size:7.4083333px;font-family:Cambria;-inkscape-font-specification:'Cambria, Italic';font-variant-ligatures:normal;font-variant-caps:normal;font-variant-numeric:normal;font-feature-settings:normal;text-align:start;writing-mode:lr-tb;text-anchor:start;fill:#000000;stroke-width:0.26458332"
           id="path25" />
        <path
           d="m -962.12215,-1009.1308 q -0.047,0.2134 -0.0615,0.3401 -0.0145,0.1229 -0.0145,0.2242 0,0.1628 0.0796,0.2315 0.0832,0.065 0.27491,0.08 l -0.0398,0.1773 h -1.44694 l 0.0398,-0.1773 q 0.13746,-0.022 0.20619,-0.069 0.0687,-0.051 0.11576,-0.1375 0.047,-0.087 0.0868,-0.2098 0.0398,-0.1266 0.11937,-0.4847 l 0.61495,-2.7854 q 0.0362,-0.1664 0.0579,-0.3183 0.0217,-0.1555 0.0217,-0.264 0,-0.1701 -0.0868,-0.2352 -0.0868,-0.069 -0.26768,-0.08 l 0.0398,-0.1772 h 1.44694 l -0.0398,0.1772 q -0.13746,0.029 -0.19896,0.065 -0.0579,0.036 -0.10852,0.1085 -0.047,0.072 -0.0977,0.2279 -0.047,0.1519 -0.12299,0.4992 z"
           style="font-style:italic;font-variant:normal;font-weight:normal;font-stretch:normal;font-size:7.4083333px;font-family:Cambria;-inkscape-font-specification:'Cambria, Italic';font-variant-ligatures:normal;font-variant-caps:normal;font-variant-numeric:normal;font-feature-settings:normal;text-align:start;writing-mode:lr-tb;text-anchor:start;fill:#000000;stroke-width:0.26458332"
           id="path27" />
        <path
           d="m -956.68166,-1013.0158 -0.24959,1.1105 h -0.34727 q -0.0109,-0.2604 -0.0398,-0.4051 -0.0289,-0.1483 -0.0651,-0.2171 -0.0362,-0.072 -0.0832,-0.1049 -0.047,-0.036 -0.11937,-0.051 -0.0687,-0.014 -0.19896,-0.014 h -1.17925 l -0.41238,1.8955 h 0.69091 q 0.15917,0 0.26407,-0.043 0.10852,-0.043 0.19895,-0.1483 0.0904,-0.1085 0.20257,-0.3292 h 0.32918 l -0.32556,1.3891 h -0.30747 q 0,-0.199 -0.0145,-0.293 -0.0145,-0.094 -0.0398,-0.1375 -0.0217,-0.047 -0.0579,-0.072 -0.0362,-0.025 -0.0941,-0.036 -0.0579,-0.011 -0.19172,-0.011 h -0.72347 l -0.46302,2.0872 h 1.07073 q 0.15917,0 0.26769,-0.022 0.11213,-0.025 0.20257,-0.083 0.0904,-0.058 0.17363,-0.1483 0.0832,-0.094 0.17002,-0.2387 0.0904,-0.1447 0.24236,-0.4413 h 0.35088 l -0.31832,1.2516 h -3.20859 l 0.0398,-0.1773 q 0.13746,-0.022 0.20619,-0.069 0.0687,-0.051 0.11575,-0.1375 0.047,-0.087 0.0868,-0.2098 0.0398,-0.1266 0.11937,-0.4847 l 0.61495,-2.7854 q 0.0796,-0.3617 0.0796,-0.5823 0,-0.1701 -0.0868,-0.2352 -0.0868,-0.069 -0.26768,-0.08 l 0.0398,-0.1772 z"
           style="font-style:italic;font-variant:normal;font-weight:normal;font-stretch:normal;font-size:7.4083333px;font-family:Cambria;-inkscape-font-specification:'Cambria, Italic';font-variant-ligatures:normal;font-variant-caps:normal;font-variant-numeric:normal;font-feature-settings:normal;text-align:start;writing-mode:lr-tb;text-anchor:start;fill:#000000;stroke-width:0.26458332"
           id="path29" />
        <path
           d="m -951.73312,-1013.0158 -0.0398,0.1772 q -0.13746,0.029 -0.19896,0.065 -0.0579,0.036 -0.10852,0.1085 -0.047,0.072 -0.0977,0.2279 -0.047,0.1519 -0.12299,0.4992 l -0.85008,3.8597 h -0.49196 l -1.05627,-3.1037 q -0.19172,-0.5571 -0.33641,-1.1105 h -0.047 q -0.0217,0.1844 -0.11937,0.7053 -0.0977,0.5173 -0.20619,1.0129 l -0.31833,1.4433 q -0.0326,0.152 -0.0543,0.293 -0.0217,0.1411 -0.0217,0.2713 0,0.1628 0.0796,0.2315 0.0832,0.065 0.27492,0.08 l -0.0398,0.1773 h -1.26607 l 0.0398,-0.1773 q 0.13746,-0.022 0.20619,-0.069 0.0687,-0.051 0.11575,-0.1375 0.047,-0.087 0.0868,-0.2098 0.0398,-0.1266 0.11937,-0.4847 l 0.61495,-2.7854 q 0.0362,-0.1555 0.0579,-0.2966 0.0217,-0.1411 0.0217,-0.2857 0,-0.1701 -0.0868,-0.2352 -0.0868,-0.069 -0.26769,-0.08 l 0.0398,-0.1772 h 1.15394 l 0.95498,2.8179 q 0.20619,0.6077 0.31832,1.0273 h 0.0398 q 0.0289,-0.2206 0.13022,-0.7343 0.1049,-0.5137 0.19172,-0.8971 l 0.25321,-1.1395 q 0.0253,-0.1193 0.0506,-0.2821 0.0289,-0.1628 0.0289,-0.3002 0,-0.1701 -0.0868,-0.2352 -0.0868,-0.069 -0.26768,-0.08 l 0.0398,-0.1772 z"
           style="font-style:italic;font-variant:normal;font-weight:normal;font-stretch:normal;font-size:7.4083333px;font-family:Cambria;-inkscape-font-specification:'Cambria, Italic';font-variant-ligatures:normal;font-variant-caps:normal;font-variant-numeric:normal;font-feature-settings:normal;text-align:start;writing-mode:lr-tb;text-anchor:start;fill:#000000;stroke-width:0.26458332"
           id="path31" />
        <path
           d="m -949.45057,-1013.0158 q 0.54622,0 0.88625,0.083 0.34003,0.083 0.63303,0.3002 0.29663,0.2171 0.44494,0.5788 0.14831,0.3581 0.14831,0.8501 0,0.4883 -0.11214,0.9333 -0.11214,0.4449 -0.32194,0.8211 -0.20981,0.3726 -0.50281,0.6511 -0.29301,0.2749 -0.56793,0.4233 -0.27492,0.1483 -0.61495,0.2242 -0.34003,0.072 -0.7922,0.072 h -1.51928 l 0.0398,-0.1773 q 0.13746,-0.022 0.20619,-0.069 0.0687,-0.051 0.11575,-0.1375 0.047,-0.087 0.0868,-0.2098 0.0398,-0.1266 0.11937,-0.4847 l 0.61495,-2.7854 q 0.0362,-0.1664 0.0579,-0.3183 0.0217,-0.1555 0.0217,-0.264 0,-0.1701 -0.0868,-0.2352 -0.0868,-0.069 -0.26768,-0.08 l 0.0398,-0.1772 z m -1.26969,4.6049 q 0.1049,0.011 0.40152,0.011 0.36536,0 0.66198,-0.08 0.30024,-0.08 0.54984,-0.2532 0.25321,-0.1772 0.4594,-0.4702 0.20619,-0.293 0.3328,-0.5933 0.13022,-0.3038 0.20257,-0.6511 0.0723,-0.3473 0.0723,-0.7343 0,-0.756 -0.3545,-1.1359 -0.35088,-0.3834 -1.04541,-0.3834 -0.15916,0 -0.34365,0.011 z"
           style="font-style:italic;font-variant:normal;font-weight:normal;font-stretch:normal;font-size:7.4083333px;font-family:Cambria;-inkscape-font-specification:'Cambria, Italic';font-variant-ligatures:normal;font-variant-caps:normal;font-variant-numeric:normal;font-feature-settings:normal;text-align:start;writing-mode:lr-tb;text-anchor:start;fill:#000000;stroke-width:0.26458332"
           id="path33" />
        <path
           d="m -946.94013,-1008.2554 q 0.13746,-0.022 0.20619,-0.069 0.0687,-0.051 0.11575,-0.1375 0.047,-0.087 0.0868,-0.2098 0.0398,-0.1266 0.11937,-0.4847 l 0.61495,-2.7854 q 0.0362,-0.1664 0.0579,-0.3183 0.0217,-0.1555 0.0217,-0.264 0,-0.1701 -0.0868,-0.2352 -0.0868,-0.069 -0.26769,-0.08 l 0.0398,-0.1772 h 1.44694 l -0.0398,0.1772 q -0.13746,0.029 -0.19895,0.065 -0.0579,0.036 -0.10852,0.1085 -0.047,0.072 -0.0977,0.2279 -0.047,0.1519 -0.12299,0.4992 l -0.77411,3.5269 h 0.88986 q 0.24237,0 0.37983,-0.047 0.14107,-0.047 0.26406,-0.1701 0.12661,-0.1266 0.24598,-0.34 0.11938,-0.2134 0.24237,-0.5317 h 0.35088 l -0.36535,1.4216 h -3.06028 z"
           style="font-style:italic;font-variant:normal;font-weight:normal;font-stretch:normal;font-size:7.4083333px;font-family:Cambria;-inkscape-font-specification:'Cambria, Italic';font-variant-ligatures:normal;font-variant-caps:normal;font-variant-numeric:normal;font-feature-settings:normal;text-align:start;writing-mode:lr-tb;text-anchor:start;fill:#000000;stroke-width:0.26458332"
           id="path35" />
        <path
           d="m -941.92648,-1013.0158 -0.0398,0.1772 q -0.15192,0.014 -0.23151,0.091 -0.0796,0.072 -0.0796,0.2279 0,0.2206 0.10129,0.5787 l 0.38344,1.3638 0.88987,-1.1901 q 0.19895,-0.2641 0.28577,-0.4124 0.0904,-0.1519 0.1266,-0.2677 0.0289,-0.087 0.0289,-0.1664 0,-0.1013 -0.0687,-0.1555 -0.0687,-0.054 -0.19895,-0.069 l 0.0398,-0.1772 h 1.35651 l -0.0398,0.1772 q -0.0868,0.018 -0.15192,0.054 -0.0615,0.033 -0.1447,0.1085 -0.0796,0.076 -0.22066,0.246 -0.13746,0.1664 -0.3545,0.4486 l -1.40715,1.8267 -0.22427,1.0237 q -0.0326,0.1447 -0.047,0.2279 -0.0109,0.08 -0.0217,0.1737 -0.007,0.09 -0.007,0.1627 0,0.1122 0.0362,0.1773 0.0362,0.061 0.10852,0.09 0.0723,0.029 0.24959,0.043 l -0.0398,0.1773 h -1.5229 l 0.0398,-0.1773 q 0.14469,-0.022 0.21342,-0.058 0.0687,-0.036 0.11938,-0.1121 0.0543,-0.076 0.1049,-0.2387 0.0543,-0.1628 0.12661,-0.492 l 0.21342,-0.9984 -0.52452,-1.8267 q -0.11937,-0.4197 -0.1881,-0.568 -0.0687,-0.1483 -0.14831,-0.2098 -0.076,-0.062 -0.20257,-0.08 l 0.0398,-0.1772 z"
           style="font-style:italic;font-variant:normal;font-weight:normal;font-stretch:normal;font-size:7.4083333px;font-family:Cambria;-inkscape-font-specification:'Cambria, Italic';font-variant-ligatures:normal;font-variant-caps:normal;font-variant-numeric:normal;font-feature-settings:normal;text-align:start;writing-mode:lr-tb;text-anchor:start;fill:#000000;stroke-width:0.26458332"
           id="path37" />
        <path
           d="m -935.87828,-1013.0158 q 0.54622,0 0.88625,0.083 0.34004,0.083 0.63304,0.3002 0.29662,0.2171 0.44493,0.5788 0.14832,0.3581 0.14832,0.8501 0,0.4883 -0.11214,0.9333 -0.11214,0.4449 -0.32195,0.8211 -0.2098,0.3726 -0.50281,0.6511 -0.293,0.2749 -0.56792,0.4233 -0.27492,0.1483 -0.61495,0.2242 -0.34003,0.072 -0.7922,0.072 h -1.51929 l 0.0398,-0.1773 q 0.13746,-0.022 0.20619,-0.069 0.0687,-0.051 0.11576,-0.1375 0.047,-0.087 0.0868,-0.2098 0.0398,-0.1266 0.11938,-0.4847 l 0.61495,-2.7854 q 0.0362,-0.1664 0.0579,-0.3183 0.0217,-0.1555 0.0217,-0.264 0,-0.1701 -0.0868,-0.2352 -0.0868,-0.069 -0.26768,-0.08 l 0.0398,-0.1772 z m -1.26969,4.6049 q 0.10491,0.011 0.40153,0.011 0.36535,0 0.66197,-0.08 0.30024,-0.08 0.54984,-0.2532 0.25322,-0.1772 0.45941,-0.4702 0.20618,-0.293 0.33279,-0.5933 0.13023,-0.3038 0.20257,-0.6511 0.0724,-0.3473 0.0724,-0.7343 0,-0.756 -0.3545,-1.1359 -0.35088,-0.3834 -1.04541,-0.3834 -0.15917,0 -0.34365,0.011 z"
           style="font-style:italic;font-variant:normal;font-weight:normal;font-stretch:normal;font-size:7.4083333px;font-family:Cambria;-inkscape-font-specification:'Cambria, Italic';font-variant-ligatures:normal;font-variant-caps:normal;font-variant-numeric:normal;font-feature-settings:normal;text-align:start;writing-mode:lr-tb;text-anchor:start;fill:#000000;stroke-width:0.26458332"
           id="path39" />
        <path
           d="m -930.53183,-1013.0737 q 0.44855,0 0.77411,0.1736 0.32918,0.1737 0.50281,0.5282 0.17725,0.3545 0.17725,0.8754 0,0.5607 -0.19172,1.2624 -0.19172,0.6982 -0.55707,1.2118 -0.36173,0.5101 -0.82837,0.7597 -0.46664,0.246 -0.97669,0.246 -0.50643,0 -0.83922,-0.1954 -0.32918,-0.1953 -0.48473,-0.5426 -0.15554,-0.3509 -0.15554,-0.8247 0,-0.4594 0.13022,-1.0274 0.13384,-0.5715 0.36174,-1.0309 0.23151,-0.4594 0.54622,-0.7813 0.31832,-0.322 0.709,-0.4884 0.39067,-0.1664 0.83199,-0.1664 z m 0.76688,1.4253 q 0,-1.107 -0.80667,-1.107 -0.19534,0 -0.36897,0.065 -0.20258,0.08 -0.38706,0.2351 -0.20619,0.1772 -0.38344,0.4521 -0.20981,0.3256 -0.36535,0.7416 -0.16278,0.4341 -0.26045,0.9369 -0.094,0.4811 -0.094,0.8718 0,0.5643 0.20257,0.8428 0.20619,0.2749 0.61133,0.2749 0.32556,0 0.61857,-0.1989 0.36173,-0.2424 0.65112,-0.7705 0.31109,-0.5679 0.48111,-1.3855 0.10129,-0.4811 0.10129,-0.9585 z"
           style="font-style:italic;font-variant:normal;font-weight:normal;font-stretch:normal;font-size:7.4083333px;font-family:Cambria;-inkscape-font-specification:'Cambria, Italic';font-variant-ligatures:normal;font-variant-caps:normal;font-variant-numeric:normal;font-feature-settings:normal;text-align:start;writing-mode:lr-tb;text-anchor:start;fill:#000000;stroke-width:0.26458332"
           id="path41" />
        <path
           d="m -925.38796,-1008.0311 v -2.6479 q 0,-0.6439 0.0326,-1.342 h -0.0362 l -1.93528,3.9899 h -0.56793 l -0.17001,-4.0225 q -0.0145,-0.3002 -0.0651,-0.4594 -0.047,-0.1592 -0.13023,-0.2315 -0.0832,-0.072 -0.23513,-0.094 l 0.0398,-0.1772 h 1.50843 l -0.0398,0.1772 q -0.16278,0.011 -0.25683,0.098 -0.0904,0.083 -0.12661,0.2315 -0.0362,0.1447 -0.0362,0.4124 v 0.123 q 0,0.065 0.004,0.1338 l 0.0326,1.4144 q 0.004,0.1556 0.004,0.4775 v 0.293 l -0.004,0.756 h 0.0362 l 2.0004,-4.1165 h 0.54622 v 2.4128 q 0,0.4304 -0.0109,0.8356 l -0.0217,0.8681 h 0.0362 l 1.46502,-2.8323 q 0.0832,-0.1592 0.17364,-0.3726 0.0941,-0.2171 0.0941,-0.3726 0,-0.1447 -0.0868,-0.2352 -0.0832,-0.094 -0.27492,-0.1266 l 0.0398,-0.1772 h 1.4795 l -0.0398,0.1772 q -0.1664,0.022 -0.31833,0.1845 -0.15193,0.1592 -0.40514,0.6258 l -2.17403,3.9972 z"
           style="font-style:italic;font-variant:normal;font-weight:normal;font-stretch:normal;font-size:7.4083333px;font-family:Cambria;-inkscape-font-specification:'Cambria, Italic';font-variant-ligatures:normal;font-variant-caps:normal;font-variant-numeric:normal;font-feature-settings:normal;text-align:start;writing-mode:lr-tb;text-anchor:start;fill:#000000;stroke-width:0.26458332"
           id="path43" />
        <path
           d="m -917.38276,-1013.0158 -0.0398,0.1772 q -0.13746,0.029 -0.19896,0.065 -0.0579,0.036 -0.10852,0.1085 -0.047,0.072 -0.0977,0.2279 -0.047,0.1519 -0.12299,0.4992 l -0.85007,3.8597 h -0.49196 l -1.05627,-3.1037 q -0.19172,-0.5571 -0.33641,-1.1105 h -0.047 q -0.0217,0.1844 -0.11937,0.7053 -0.0977,0.5173 -0.20619,1.0129 l -0.31833,1.4433 q -0.0326,0.152 -0.0543,0.293 -0.0217,0.1411 -0.0217,0.2713 0,0.1628 0.0796,0.2315 0.0832,0.065 0.27492,0.08 l -0.0398,0.1773 h -1.26608 l 0.0398,-0.1773 q 0.13745,-0.022 0.20618,-0.069 0.0687,-0.051 0.11576,-0.1375 0.047,-0.087 0.0868,-0.2098 0.0398,-0.1266 0.11937,-0.4847 l 0.61495,-2.7854 q 0.0362,-0.1555 0.0579,-0.2966 0.0217,-0.1411 0.0217,-0.2857 0,-0.1701 -0.0868,-0.2352 -0.0868,-0.069 -0.26768,-0.08 l 0.0398,-0.1772 h 1.15393 l 0.95499,2.8179 q 0.20618,0.6077 0.31832,1.0273 h 0.0398 q 0.0289,-0.2206 0.13023,-0.7343 0.1049,-0.5137 0.19172,-0.8971 l 0.25321,-1.1395 q 0.0253,-0.1193 0.0506,-0.2821 0.0289,-0.1628 0.0289,-0.3002 0,-0.1701 -0.0868,-0.2352 -0.0868,-0.069 -0.26769,-0.08 l 0.0398,-0.1772 z"
           style="font-style:italic;font-variant:normal;font-weight:normal;font-stretch:normal;font-size:7.4083333px;font-family:Cambria;-inkscape-font-specification:'Cambria, Italic';font-variant-ligatures:normal;font-variant-caps:normal;font-variant-numeric:normal;font-feature-settings:normal;text-align:start;writing-mode:lr-tb;text-anchor:start;fill:#000000;stroke-width:0.26458332"
           id="path45" />
        <path
           d="m -914.64443,-1010.3173 q 0.17363,0.1303 0.27853,0.3111 0.10852,0.1809 0.17364,0.5028 l 0.0832,0.4197 q 0.0253,0.1302 0.0543,0.2423 0.0326,0.1122 0.0724,0.2171 0.0434,0.1012 0.0904,0.1627 0.0506,0.062 0.1049,0.1013 0.0579,0.04 0.12661,0.065 0.0723,0.022 0.18086,0.04 l -0.0362,0.1773 h -1.00201 q -0.11575,-0.322 -0.20618,-0.7669 l -0.15917,-0.7669 q -0.0398,-0.1989 -0.0977,-0.3328 -0.0543,-0.1374 -0.13384,-0.2098 -0.076,-0.076 -0.18087,-0.098 -0.10128,-0.025 -0.24959,-0.025 h -0.41238 l -0.25322,1.1467 q -0.0326,0.1411 -0.047,0.2243 -0.0109,0.083 -0.0217,0.1773 -0.007,0.09 -0.007,0.1627 0,0.1122 0.0362,0.1773 0.0362,0.061 0.10852,0.09 0.0724,0.029 0.2496,0.043 l -0.0398,0.1773 h -1.48673 l 0.0398,-0.1773 q 0.13746,-0.022 0.20619,-0.069 0.0687,-0.051 0.11575,-0.1375 0.047,-0.087 0.0868,-0.2098 0.0398,-0.1266 0.11937,-0.4847 l 0.61495,-2.7854 q 0.0796,-0.3617 0.0796,-0.5715 0,-0.1772 -0.0832,-0.246 -0.0832,-0.069 -0.27131,-0.08 l 0.0398,-0.1772 h 1.60972 q 0.38344,0 0.6258,0.047 0.24236,0.043 0.41238,0.1339 0.17363,0.09 0.28938,0.2351 0.11576,0.1411 0.17364,0.3219 0.0579,0.1773 0.0579,0.3799 0,0.3219 -0.10852,0.5715 -0.1049,0.2496 -0.28938,0.4377 -0.18449,0.1881 -0.43047,0.3183 -0.24236,0.1302 -0.51366,0.2134 z m -0.81752,-0.2713 q 0.39429,0 0.65474,-0.076 0.26045,-0.08 0.43408,-0.2388 0.17363,-0.1591 0.28577,-0.4196 0.11214,-0.2604 0.11214,-0.5643 0,-0.1555 -0.0289,-0.2749 -0.0289,-0.123 -0.076,-0.2026 -0.047,-0.08 -0.11937,-0.1411 -0.0724,-0.062 -0.18087,-0.1049 -0.10852,-0.047 -0.25321,-0.065 -0.14108,-0.022 -0.38706,-0.022 -0.19172,0 -0.40514,0.014 l -0.46302,2.0944 z"
           style="font-style:italic;font-variant:normal;font-weight:normal;font-stretch:normal;font-size:7.4083333px;font-family:Cambria;-inkscape-font-specification:'Cambria, Italic';font-variant-ligatures:normal;font-variant-caps:normal;font-variant-numeric:normal;font-feature-settings:normal;text-align:start;writing-mode:lr-tb;text-anchor:start;fill:#000000;stroke-width:0.26458332"
           id="path47" />
        <path
           d="m -911.84099,-1009.1308 q -0.047,0.2134 -0.0615,0.3401 -0.0145,0.1229 -0.0145,0.2242 0,0.1628 0.0796,0.2315 0.0832,0.065 0.27492,0.08 l -0.0398,0.1773 h -1.44694 l 0.0398,-0.1773 q 0.13746,-0.022 0.20619,-0.069 0.0687,-0.051 0.11575,-0.1375 0.047,-0.087 0.0868,-0.2098 0.0398,-0.1266 0.11937,-0.4847 l 0.61495,-2.7854 q 0.0362,-0.1664 0.0579,-0.3183 0.0217,-0.1555 0.0217,-0.264 0,-0.1701 -0.0868,-0.2352 -0.0868,-0.069 -0.26769,-0.08 l 0.0398,-0.1772 h 1.44694 l -0.0398,0.1772 q -0.13746,0.029 -0.19895,0.065 -0.0579,0.036 -0.10852,0.1085 -0.047,0.072 -0.0977,0.2279 -0.047,0.1519 -0.12299,0.4992 z"
           style="font-style:italic;font-variant:normal;font-weight:normal;font-stretch:normal;font-size:7.4083333px;font-family:Cambria;-inkscape-font-specification:'Cambria, Italic';font-variant-ligatures:normal;font-variant-caps:normal;font-variant-numeric:normal;font-feature-settings:normal;text-align:start;writing-mode:lr-tb;text-anchor:start;fill:#000000;stroke-width:0.26458332"
           id="path49" />
        <path
           d="m -908.60345,-1013.0158 -0.0398,0.1772 q -0.15916,0.018 -0.24959,0.094 -0.0868,0.076 -0.12299,0.2134 -0.0362,0.1339 -0.0362,0.3618 0,0.072 0.004,0.1519 l 0.10852,2.8215 v 0.2894 h 0.0362 l 1.56631,-2.8251 q 0.13746,-0.2496 0.20619,-0.4269 0.0687,-0.1809 0.0687,-0.3183 0,-0.1447 -0.0868,-0.2352 -0.0832,-0.094 -0.27492,-0.1266 l 0.0398,-0.1772 h 1.4795 l -0.0398,0.1772 q -0.0977,0.014 -0.1881,0.076 -0.0868,0.058 -0.19896,0.199 -0.10852,0.1374 -0.34003,0.5353 l -2.3151,4.0081 h -0.48111 l -0.24236,-4.0334 q -0.0145,-0.2351 -0.0543,-0.4015 -0.0362,-0.17 -0.11938,-0.2641 -0.0796,-0.094 -0.25683,-0.1194 l 0.0398,-0.1772 z"
           style="font-style:italic;font-variant:normal;font-weight:normal;font-stretch:normal;font-size:7.4083333px;font-family:Cambria;-inkscape-font-specification:'Cambria, Italic';font-variant-ligatures:normal;font-variant-caps:normal;font-variant-numeric:normal;font-feature-settings:normal;text-align:start;writing-mode:lr-tb;text-anchor:start;fill:#000000;stroke-width:0.26458332"
           id="path51" />
        <path
           d="m -902.13202,-1013.0158 -0.24959,1.1105 h -0.34727 q -0.0109,-0.2604 -0.0398,-0.4051 -0.0289,-0.1483 -0.0651,-0.2171 -0.0362,-0.072 -0.0832,-0.1049 -0.047,-0.036 -0.11938,-0.051 -0.0687,-0.014 -0.19895,-0.014 h -1.17926 l -0.41237,1.8955 h 0.69091 q 0.15916,0 0.26407,-0.043 0.10852,-0.043 0.19895,-0.1483 0.0904,-0.1085 0.20257,-0.3292 h 0.32918 l -0.32556,1.3891 h -0.30747 q 0,-0.199 -0.0145,-0.293 -0.0145,-0.094 -0.0398,-0.1375 -0.0217,-0.047 -0.0579,-0.072 -0.0362,-0.025 -0.094,-0.036 -0.0579,-0.011 -0.19172,-0.011 h -0.72347 l -0.46302,2.0872 h 1.07073 q 0.15917,0 0.26769,-0.022 0.11213,-0.025 0.20257,-0.083 0.0904,-0.058 0.17363,-0.1483 0.0832,-0.094 0.17002,-0.2387 0.0904,-0.1447 0.24236,-0.4413 h 0.35088 l -0.31833,1.2516 h -3.20859 l 0.0398,-0.1773 q 0.13745,-0.022 0.20618,-0.069 0.0687,-0.051 0.11576,-0.1375 0.047,-0.087 0.0868,-0.2098 0.0398,-0.1266 0.11937,-0.4847 l 0.61495,-2.7854 q 0.0796,-0.3617 0.0796,-0.5823 0,-0.1701 -0.0868,-0.2352 -0.0868,-0.069 -0.26768,-0.08 l 0.0398,-0.1772 z"
           style="font-style:italic;font-variant:normal;font-weight:normal;font-stretch:normal;font-size:7.4083333px;font-family:Cambria;-inkscape-font-specification:'Cambria, Italic';font-variant-ligatures:normal;font-variant-caps:normal;font-variant-numeric:normal;font-feature-settings:normal;text-align:start;writing-mode:lr-tb;text-anchor:start;fill:#000000;stroke-width:0.26458332"
           id="path53" />
        <path
           d="m -899.42262,-1010.3173 q 0.17363,0.1303 0.27853,0.3111 0.10852,0.1809 0.17364,0.5028 l 0.0832,0.4197 q 0.0253,0.1302 0.0543,0.2423 0.0326,0.1122 0.0723,0.2171 0.0434,0.1012 0.0904,0.1627 0.0506,0.062 0.1049,0.1013 0.0579,0.04 0.12661,0.065 0.0723,0.022 0.18086,0.04 l -0.0362,0.1773 h -1.00201 q -0.11575,-0.322 -0.20619,-0.7669 l -0.15916,-0.7669 q -0.0398,-0.1989 -0.0977,-0.3328 -0.0543,-0.1374 -0.13384,-0.2098 -0.076,-0.076 -0.18087,-0.098 -0.10128,-0.025 -0.24959,-0.025 h -0.41238 l -0.25322,1.1467 q -0.0326,0.1411 -0.047,0.2243 -0.0109,0.083 -0.0217,0.1773 -0.007,0.09 -0.007,0.1627 0,0.1122 0.0362,0.1773 0.0362,0.061 0.10852,0.09 0.0724,0.029 0.2496,0.043 l -0.0398,0.1773 h -1.48673 l 0.0398,-0.1773 q 0.13746,-0.022 0.20619,-0.069 0.0687,-0.051 0.11575,-0.1375 0.047,-0.087 0.0868,-0.2098 0.0398,-0.1266 0.11937,-0.4847 l 0.61495,-2.7854 q 0.0796,-0.3617 0.0796,-0.5715 0,-0.1772 -0.0832,-0.246 -0.0832,-0.069 -0.2713,-0.08 l 0.0398,-0.1772 h 1.60973 q 0.38343,0 0.6258,0.047 0.24236,0.043 0.41237,0.1339 0.17364,0.09 0.28939,0.2351 0.11576,0.1411 0.17364,0.3219 0.0579,0.1773 0.0579,0.3799 0,0.3219 -0.10852,0.5715 -0.1049,0.2496 -0.28939,0.4377 -0.18448,0.1881 -0.43046,0.3183 -0.24236,0.1302 -0.51366,0.2134 z m -0.81752,-0.2713 q 0.39429,0 0.65474,-0.076 0.26044,-0.08 0.43408,-0.2388 0.17363,-0.1591 0.28577,-0.4196 0.11214,-0.2604 0.11214,-0.5643 0,-0.1555 -0.0289,-0.2749 -0.0289,-0.123 -0.076,-0.2026 -0.047,-0.08 -0.11937,-0.1411 -0.0723,-0.062 -0.18087,-0.1049 -0.10852,-0.047 -0.25321,-0.065 -0.14108,-0.022 -0.38706,-0.022 -0.19172,0 -0.40514,0.014 l -0.46302,2.0944 z"
           style="font-style:italic;font-variant:normal;font-weight:normal;font-stretch:normal;font-size:7.4083333px;font-family:Cambria;-inkscape-font-specification:'Cambria, Italic';font-variant-ligatures:normal;font-variant-caps:normal;font-variant-numeric:normal;font-feature-settings:normal;text-align:start;writing-mode:lr-tb;text-anchor:start;fill:#000000;stroke-width:0.26458332"
           id="path55" />
        <path
           d="m -893.41782,-1010.3173 q 0.17364,0.1303 0.27854,0.3111 0.10852,0.1809 0.17363,0.5028 l 0.0832,0.4197 q 0.0253,0.1302 0.0543,0.2423 0.0326,0.1122 0.0723,0.2171 0.0434,0.1012 0.0904,0.1627 0.0506,0.062 0.1049,0.1013 0.0579,0.04 0.12661,0.065 0.0724,0.022 0.18087,0.04 l -0.0362,0.1773 h -1.00201 q -0.11576,-0.322 -0.20619,-0.7669 l -0.15916,-0.7669 q -0.0398,-0.1989 -0.0977,-0.3328 -0.0543,-0.1374 -0.13384,-0.2098 -0.076,-0.076 -0.18087,-0.098 -0.10129,-0.025 -0.2496,-0.025 h -0.41238 l -0.25321,1.1467 q -0.0326,0.1411 -0.047,0.2243 -0.0109,0.083 -0.0217,0.1773 -0.007,0.09 -0.007,0.1627 0,0.1122 0.0362,0.1773 0.0362,0.061 0.10852,0.09 0.0724,0.029 0.2496,0.043 l -0.0398,0.1773 h -1.48673 l 0.0398,-0.1773 q 0.13746,-0.022 0.20618,-0.069 0.0687,-0.051 0.11576,-0.1375 0.047,-0.087 0.0868,-0.2098 0.0398,-0.1266 0.11937,-0.4847 l 0.61495,-2.7854 q 0.0796,-0.3617 0.0796,-0.5715 0,-0.1772 -0.0832,-0.246 -0.0832,-0.069 -0.2713,-0.08 l 0.0398,-0.1772 h 1.60972 q 0.38344,0 0.6258,0.047 0.24237,0.043 0.41238,0.1339 0.17363,0.09 0.28939,0.2351 0.11575,0.1411 0.17363,0.3219 0.0579,0.1773 0.0579,0.3799 0,0.3219 -0.10852,0.5715 -0.1049,0.2496 -0.28939,0.4377 -0.18448,0.1881 -0.43046,0.3183 -0.24237,0.1302 -0.51367,0.2134 z m -0.81752,-0.2713 q 0.39429,0 0.65474,-0.076 0.26045,-0.08 0.43408,-0.2388 0.17364,-0.1591 0.28577,-0.4196 0.11214,-0.2604 0.11214,-0.5643 0,-0.1555 -0.0289,-0.2749 -0.0289,-0.123 -0.076,-0.2026 -0.047,-0.08 -0.11937,-0.1411 -0.0723,-0.062 -0.18087,-0.1049 -0.10852,-0.047 -0.25322,-0.065 -0.14107,-0.022 -0.38705,-0.022 -0.19172,0 -0.40514,0.014 l -0.46303,2.0944 z"
           style="font-style:italic;font-variant:normal;font-weight:normal;font-stretch:normal;font-size:7.4083333px;font-family:Cambria;-inkscape-font-specification:'Cambria, Italic';font-variant-ligatures:normal;font-variant-caps:normal;font-variant-numeric:normal;font-feature-settings:normal;text-align:start;writing-mode:lr-tb;text-anchor:start;fill:#000000;stroke-width:0.26458332"
           id="path57" />
        <path
           d="m -887.54686,-1013.0158 -0.2496,1.1105 h -0.34726 q -0.0109,-0.2604 -0.0398,-0.4051 -0.0289,-0.1483 -0.0651,-0.2171 -0.0362,-0.072 -0.0832,-0.1049 -0.047,-0.036 -0.11938,-0.051 -0.0687,-0.014 -0.19895,-0.014 h -1.17926 l -0.41237,1.8955 h 0.69091 q 0.15916,0 0.26407,-0.043 0.10852,-0.043 0.19895,-0.1483 0.0904,-0.1085 0.20257,-0.3292 h 0.32918 l -0.32556,1.3891 h -0.30748 q 0,-0.199 -0.0145,-0.293 -0.0145,-0.094 -0.0398,-0.1375 -0.0217,-0.047 -0.0579,-0.072 -0.0362,-0.025 -0.094,-0.036 -0.0579,-0.011 -0.19172,-0.011 h -0.72347 l -0.46302,2.0872 h 1.07073 q 0.15916,0 0.26768,-0.022 0.11214,-0.025 0.20258,-0.083 0.0904,-0.058 0.17363,-0.1483 0.0832,-0.094 0.17001,-0.2387 0.0904,-0.1447 0.24237,-0.4413 h 0.35088 l -0.31833,1.2516 h -3.20859 l 0.0398,-0.1773 q 0.13746,-0.022 0.20619,-0.069 0.0687,-0.051 0.11576,-0.1375 0.047,-0.087 0.0868,-0.2098 0.0398,-0.1266 0.11937,-0.4847 l 0.61495,-2.7854 q 0.0796,-0.3617 0.0796,-0.5823 0,-0.1701 -0.0868,-0.2352 -0.0868,-0.069 -0.26768,-0.08 l 0.0398,-0.1772 z"
           style="font-style:italic;font-variant:normal;font-weight:normal;font-stretch:normal;font-size:7.4083333px;font-family:Cambria;-inkscape-font-specification:'Cambria, Italic';font-variant-ligatures:normal;font-variant-caps:normal;font-variant-numeric:normal;font-feature-settings:normal;text-align:start;writing-mode:lr-tb;text-anchor:start;fill:#000000;stroke-width:0.26458332"
           id="path59" />
        <path
           d="m -885.31134,-1008.0781 0.0398,-0.1773 q 0.16278,-0.014 0.25322,-0.094 0.0941,-0.08 0.13022,-0.2207 0.0398,-0.1411 0.0398,-0.3726 0,-0.141 -0.0109,-0.3074 l -0.0253,-0.4667 h -1.59163 l -0.19896,0.3545 q -0.14107,0.2496 -0.20619,0.4305 -0.0651,0.1772 -0.0651,0.3147 0,0.3038 0.36535,0.3617 l -0.0398,0.1773 h -1.47949 l 0.0398,-0.1773 q 0.11213,-0.014 0.21342,-0.087 0.0977,-0.076 0.20981,-0.2243 0.11213,-0.1519 0.31471,-0.4992 l 2.31872,-4.008 h 0.54622 l 0.26045,4.0334 q 0.0181,0.2857 0.0651,0.4485 0.047,0.1592 0.12661,0.2388 0.0832,0.076 0.23874,0.098 l -0.0398,0.1773 z m -1.002,-1.9534 h 1.41438 l -0.0615,-1.1648 q -0.0109,-0.2387 -0.0181,-0.5968 -0.007,-0.3582 -0.007,-0.5173 h -0.0398 z"
           style="font-style:italic;font-variant:normal;font-weight:normal;font-stretch:normal;font-size:7.4083333px;font-family:Cambria;-inkscape-font-specification:'Cambria, Italic';font-variant-ligatures:normal;font-variant-caps:normal;font-variant-numeric:normal;font-feature-settings:normal;text-align:start;writing-mode:lr-tb;text-anchor:start;fill:#000000;stroke-width:0.26458332"
           id="path61" />
        <path
           d="m -883.2169,-1008.2554 q 0.13746,-0.022 0.20619,-0.069 0.0687,-0.051 0.11576,-0.1375 0.047,-0.087 0.0868,-0.2098 0.0398,-0.1266 0.11937,-0.4847 l 0.61495,-2.7854 q 0.0362,-0.1664 0.0579,-0.3183 0.0217,-0.1555 0.0217,-0.264 0,-0.1701 -0.0868,-0.2352 -0.0868,-0.069 -0.26768,-0.08 l 0.0398,-0.1772 h 1.44694 l -0.0398,0.1772 q -0.13746,0.029 -0.19896,0.065 -0.0579,0.036 -0.10852,0.1085 -0.047,0.072 -0.0977,0.2279 -0.047,0.1519 -0.12299,0.4992 l -0.77412,3.5269 h 0.88987 q 0.24236,0 0.37982,-0.047 0.14108,-0.047 0.26407,-0.1701 0.12661,-0.1266 0.24598,-0.34 0.11937,-0.2134 0.24236,-0.5317 h 0.35088 l -0.36535,1.4216 h -3.06028 z"
           style="font-style:italic;font-variant:normal;font-weight:normal;font-stretch:normal;font-size:7.4083333px;font-family:Cambria;-inkscape-font-specification:'Cambria, Italic';font-variant-ligatures:normal;font-variant-caps:normal;font-variant-numeric:normal;font-feature-settings:normal;text-align:start;writing-mode:lr-tb;text-anchor:start;fill:#000000;stroke-width:0.26458332"
           id="path63" />
        <path
           d="m -877.85236,-1008.0781 h -1.52291 l 0.0398,-0.1773 q 0.14108,-0.018 0.20981,-0.054 0.0687,-0.04 0.11937,-0.1158 0.0543,-0.076 0.10852,-0.2351 0.0543,-0.1628 0.12661,-0.4956 l 0.77411,-3.5414 h -0.4594 q -0.22428,0 -0.35812,0.065 -0.13384,0.065 -0.26768,0.2424 -0.13385,0.1772 -0.32556,0.5932 h -0.34727 l 0.2713,-1.219 h 3.77651 l -0.28215,1.2733 h -0.34726 q 0,-0.3509 -0.0181,-0.5245 -0.0181,-0.1773 -0.0687,-0.2677 -0.0506,-0.094 -0.12661,-0.1266 -0.0724,-0.036 -0.26045,-0.036 h -0.53537 l -0.78496,3.5667 q -0.0326,0.1411 -0.047,0.2243 -0.0109,0.083 -0.0217,0.1773 -0.007,0.09 -0.007,0.1627 0,0.1122 0.0362,0.1773 0.0362,0.061 0.10852,0.09 0.0724,0.029 0.2496,0.043 z"
           style="font-style:italic;font-variant:normal;font-weight:normal;font-stretch:normal;font-size:7.4083333px;font-family:Cambria;-inkscape-font-specification:'Cambria, Italic';font-variant-ligatures:normal;font-variant-caps:normal;font-variant-numeric:normal;font-feature-settings:normal;text-align:start;writing-mode:lr-tb;text-anchor:start;fill:#000000;stroke-width:0.26458332"
           id="path65" />
        <path
           d="m -873.24748,-1013.0737 q 0.44855,0 0.77412,0.1736 0.32917,0.1737 0.50281,0.5282 0.17725,0.3545 0.17725,0.8754 0,0.5607 -0.19172,1.2624 -0.19172,0.6982 -0.55707,1.2118 -0.36174,0.5101 -0.82838,0.7597 -0.46664,0.246 -0.97668,0.246 -0.50643,0 -0.83923,-0.1954 -0.32918,-0.1953 -0.48472,-0.5426 -0.15555,-0.3509 -0.15555,-0.8247 0,-0.4594 0.13023,-1.0274 0.13384,-0.5715 0.36173,-1.0309 0.23151,-0.4594 0.54622,-0.7813 0.31833,-0.322 0.709,-0.4884 0.39068,-0.1664 0.83199,-0.1664 z m 0.76688,1.4253 q 0,-1.107 -0.80667,-1.107 -0.19534,0 -0.36897,0.065 -0.20257,0.08 -0.38705,0.2351 -0.20619,0.1772 -0.38344,0.4521 -0.20981,0.3256 -0.36536,0.7416 -0.16278,0.4341 -0.26045,0.9369 -0.094,0.4811 -0.094,0.8718 0,0.5643 0.20257,0.8428 0.20619,0.2749 0.61134,0.2749 0.32556,0 0.61856,-0.1989 0.36174,-0.2424 0.65113,-0.7705 0.31109,-0.5679 0.4811,-1.3855 0.10129,-0.4811 0.10129,-0.9585 z"
           style="font-style:italic;font-variant:normal;font-weight:normal;font-stretch:normal;font-size:7.4083333px;font-family:Cambria;-inkscape-font-specification:'Cambria, Italic';font-variant-ligatures:normal;font-variant-caps:normal;font-variant-numeric:normal;font-feature-settings:normal;text-align:start;writing-mode:lr-tb;text-anchor:start;fill:#000000;stroke-width:0.26458332"
           id="path67" />
        <path
           d="m -868.74749,-1010.3173 q 0.17363,0.1303 0.27854,0.3111 0.10852,0.1809 0.17363,0.5028 l 0.0832,0.4197 q 0.0253,0.1302 0.0543,0.2423 0.0326,0.1122 0.0723,0.2171 0.0434,0.1012 0.0904,0.1627 0.0506,0.062 0.1049,0.1013 0.0579,0.04 0.12661,0.065 0.0723,0.022 0.18087,0.04 l -0.0362,0.1773 h -1.002 q -0.11576,-0.322 -0.20619,-0.7669 l -0.15917,-0.7669 q -0.0398,-0.1989 -0.0977,-0.3328 -0.0543,-0.1374 -0.13385,-0.2098 -0.076,-0.076 -0.18086,-0.098 -0.10129,-0.025 -0.2496,-0.025 h -0.41238 l -0.25321,1.1467 q -0.0326,0.1411 -0.047,0.2243 -0.0109,0.083 -0.0217,0.1773 -0.007,0.09 -0.007,0.1627 0,0.1122 0.0362,0.1773 0.0362,0.061 0.10852,0.09 0.0723,0.029 0.24959,0.043 l -0.0398,0.1773 h -1.48673 l 0.0398,-0.1773 q 0.13746,-0.022 0.20619,-0.069 0.0687,-0.051 0.11576,-0.1375 0.047,-0.087 0.0868,-0.2098 0.0398,-0.1266 0.11938,-0.4847 l 0.61494,-2.7854 q 0.0796,-0.3617 0.0796,-0.5715 0,-0.1772 -0.0832,-0.246 -0.0832,-0.069 -0.2713,-0.08 l 0.0398,-0.1772 h 1.60972 q 0.38344,0 0.6258,0.047 0.24236,0.043 0.41238,0.1339 0.17363,0.09 0.28939,0.2351 0.11575,0.1411 0.17363,0.3219 0.0579,0.1773 0.0579,0.3799 0,0.3219 -0.10852,0.5715 -0.10491,0.2496 -0.28939,0.4377 -0.18449,0.1881 -0.43047,0.3183 -0.24236,0.1302 -0.51366,0.2134 z m -0.81752,-0.2713 q 0.39429,0 0.65474,-0.076 0.26045,-0.08 0.43408,-0.2388 0.17363,-0.1591 0.28577,-0.4196 0.11214,-0.2604 0.11214,-0.5643 0,-0.1555 -0.0289,-0.2749 -0.0289,-0.123 -0.076,-0.2026 -0.047,-0.08 -0.11938,-0.1411 -0.0723,-0.062 -0.18086,-0.1049 -0.10852,-0.047 -0.25322,-0.065 -0.14108,-0.022 -0.38706,-0.022 -0.19171,0 -0.40514,0.014 l -0.46302,2.0944 z"
           style="font-style:italic;font-variant:normal;font-weight:normal;font-stretch:normal;font-size:7.4083333px;font-family:Cambria;-inkscape-font-specification:'Cambria, Italic';font-variant-ligatures:normal;font-variant-caps:normal;font-variant-numeric:normal;font-feature-settings:normal;text-align:start;writing-mode:lr-tb;text-anchor:start;fill:#000000;stroke-width:0.26458332"
           id="path69" />
      </g>
      <g
         aria-label="®"
         style="font-style:italic;font-variant:normal;font-weight:normal;font-stretch:normal;font-size:7.4083333px;line-height:6.61458349px;font-family:Cambria;-inkscape-font-specification:'Cambria, Italic';font-variant-ligatures:normal;font-variant-caps:normal;font-variant-numeric:normal;font-feature-settings:normal;text-align:start;letter-spacing:0px;word-spacing:0px;writing-mode:lr-tb;text-anchor:start;fill:#000000;fill-opacity:1;stroke:none;stroke-width:0.26458332"
         id="text31-1-9">
        <path
           d="m -860.32485,-1007.7089 q 0,0.5824 -0.20258,1.0888 -0.20257,0.5028 -0.58239,0.879 -0.3762,0.3762 -0.88625,0.5788 -0.50643,0.2026 -1.08159,0.2026 -0.56792,0 -1.07073,-0.1954 -0.4992,-0.1953 -0.88264,-0.5643 -0.37982,-0.3726 -0.58962,-0.8862 -0.20981,-0.5137 -0.20981,-1.1033 0,-0.5896 0.20981,-1.1033 0.2098,-0.5137 0.59324,-0.8826 0.38344,-0.3726 0.88263,-0.568 0.4992,-0.1953 1.06712,-0.1953 0.57516,0 1.08159,0.2026 0.51005,0.2025 0.88625,0.5787 0.37982,0.3763 0.58239,0.8827 0.20258,0.5028 0.20258,1.0852 z m -0.45217,0 q 0,-0.6801 -0.28939,-1.2263 -0.28577,-0.5498 -0.81752,-0.8573 -0.52813,-0.3075 -1.19734,-0.3075 -0.6656,0 -1.19735,0.3075 -0.52813,0.3075 -0.8139,0.8573 -0.28577,0.5462 -0.28577,1.2263 0,0.6909 0.28939,1.2407 0.293,0.5463 0.81752,0.8501 0.52813,0.3039 1.19011,0.3039 0.66559,0 1.19372,-0.3039 0.52813,-0.3075 0.81752,-0.8573 0.29301,-0.5498 0.29301,-1.2335 z m -2.46342,1.5735 h -1.21543 v -0.1591 q 0.13746,-0.04 0.19896,-0.1013 0.0651,-0.062 0.0904,-0.1628 0.0289,-0.1013 0.0289,-0.2713 v -1.787 q 0,-0.1591 -0.0253,-0.2604 -0.0253,-0.1013 -0.0832,-0.1628 -0.0579,-0.061 -0.20981,-0.1085 v -0.1592 h 1.47226 q 0.39791,0 0.64751,0.09 0.25321,0.091 0.38344,0.2714 0.13384,0.1808 0.13384,0.4883 0,0.2894 -0.18448,0.4956 -0.18087,0.2025 -0.59325,0.34 l 0.004,0.04 q 0.15193,0.072 0.25321,0.1881 0.10491,0.1121 0.20257,0.3147 l 0.17725,0.3726 q 0.0543,0.1157 0.10491,0.1917 0.0543,0.076 0.10128,0.123 0.0506,0.043 0.0977,0.062 0.0506,0.018 0.13746,0.036 v 0.1591 h -0.77411 q -0.14831,-0.2532 -0.25683,-0.5136 l -0.17002,-0.3979 q -0.0687,-0.1628 -0.13746,-0.2533 -0.0651,-0.094 -0.13746,-0.1374 -0.0724,-0.047 -0.15916,-0.058 -0.0832,-0.011 -0.1881,-0.011 h -0.26045 v 0.5787 q 0,0.2135 0.0253,0.3364 0.0253,0.123 0.0941,0.1918 0.0687,0.065 0.24236,0.1049 z m -0.36173,-2.883 v 1.2408 h 0.3762 q 0.43047,0 0.62942,-0.1592 0.20257,-0.1628 0.20257,-0.4811 0,-0.2315 -0.0977,-0.3654 -0.094,-0.1338 -0.26406,-0.1881 -0.17002,-0.058 -0.416,-0.058 h -0.10852 q -0.13746,0 -0.32194,0.011 z"
           style="font-style:italic;font-variant:normal;font-weight:normal;font-stretch:normal;font-size:7.4083333px;font-family:Cambria;-inkscape-font-specification:'Cambria, Italic';font-variant-ligatures:normal;font-variant-caps:normal;font-variant-numeric:normal;font-feature-settings:normal;text-align:start;writing-mode:lr-tb;text-anchor:start;stroke-width:0.26458332"
           id="path72" />
      </g>
      <g
         aria-label="Paul Brown"
         style="font-style:italic;font-variant:normal;font-weight:normal;font-stretch:normal;font-size:25.39999962px;line-height:6.61458349px;font-family:Cambria;-inkscape-font-specification:'Cambria, Italic';font-variant-ligatures:normal;font-variant-caps:normal;font-variant-numeric:normal;font-feature-settings:normal;text-align:start;letter-spacing:0px;word-spacing:0px;writing-mode:lr-tb;text-anchor:start;fill:#000000;fill-opacity:1;stroke:none;stroke-width:0.26458332"
         id="text12-3-3-75">
        <path
           d="m -983.50781,-1033.8314 q 1.47588,0 2.41845,0.2356 0.95498,0.2233 1.5627,0.707 0.62012,0.4712 0.91777,1.203 0.31006,0.7317 0.31006,1.6991 0,1.8604 -0.88056,3.2246 -0.88057,1.3643 -2.39366,2.0092 -1.50068,0.6449 -3.60908,0.6449 -1.26504,0 -2.1084,-0.05 l -0.79375,3.6463 q -0.11162,0.5085 -0.16123,0.7813 -0.0372,0.2729 -0.0744,0.5954 -0.0248,0.31 -0.0248,0.5581 0,0.3844 0.12403,0.6077 0.12402,0.2108 0.37207,0.31 0.24804,0.099 0.85576,0.1489 l -0.13643,0.6077 h -5.09736 l 0.13643,-0.6077 q 0.47128,-0.074 0.70693,-0.2357 0.23564,-0.1736 0.39687,-0.4713 0.16123,-0.2976 0.29766,-0.7193 0.13643,-0.4341 0.40928,-1.6619 l 2.1084,-9.5498 q 0.27285,-1.2403 0.27285,-1.9596 0,-0.6077 -0.28526,-0.8434 -0.28525,-0.2356 -0.93017,-0.2728 l 0.13642,-0.6077 z m -2.28203,8.6444 q 1.50068,0 2.41845,-0.31 0.93018,-0.3101 1.51309,-0.955 0.59531,-0.6574 0.91777,-1.5503 0.32246,-0.893 0.32246,-1.9596 0,-1.0542 -0.37207,-1.6619 -0.37207,-0.6077 -1.0542,-0.8558 -0.68212,-0.2604 -1.73632,-0.2604 -0.76895,0 -1.61231,0.037 l -1.68672,7.5158 z"
           style="font-style:italic;font-variant:normal;font-weight:normal;font-stretch:normal;font-size:25.39999962px;font-family:Cambria;-inkscape-font-specification:'Cambria, Italic';font-variant-ligatures:normal;font-variant-caps:normal;font-variant-numeric:normal;font-feature-settings:normal;text-align:start;writing-mode:lr-tb;text-anchor:start;fill:#000000;stroke-width:0.26458332"
           id="path75" />
        <path
           d="m -968.66221,-1028.1511 1.14102,-0.8186 0.79375,0.1984 -1.89756,8.4212 q -0.17363,0.7442 -0.23565,1.1534 -0.062,0.3969 -0.062,0.6574 0,0.5085 0.28526,0.7441 0.28525,0.2233 1.0914,0.2853 l -0.11162,0.6077 h -3.54707 l 0.78135,-3.113 -0.16123,-0.05 q -1.19063,1.7363 -2.25723,2.5425 -1.0666,0.8061 -2.25722,0.8061 -1.36426,0 -2.1208,-1.0294 -0.74415,-1.0294 -0.74415,-2.8897 0,-1.1907 0.27286,-2.3813 0.27285,-1.203 0.81855,-2.2696 0.55811,-1.079 1.32705,-1.8976 0.76895,-0.8185 1.77354,-1.3022 1.01699,-0.4837 2.20761,-0.4837 0.76895,0 1.46348,0.186 0.69453,0.1737 1.43867,0.6326 z m -1.0914,3.6959 q 0.11162,-0.5085 0.14882,-0.8806 0.0372,-0.3721 0.0372,-0.8062 0,-0.9674 -0.40928,-1.4014 -0.40927,-0.4465 -1.36425,-0.4465 -0.5209,0 -0.99219,0.1736 -0.47129,0.1612 -0.95498,0.5581 -0.48369,0.3845 -0.93018,1.017 -0.43408,0.6325 -0.79375,1.5379 -0.35967,0.9054 -0.5581,1.9472 -0.19844,1.0294 -0.19844,2.0092 0,1.2898 0.34727,1.9347 0.35966,0.6325 1.19062,0.6325 0.38447,0 0.79375,-0.1736 0.42168,-0.1736 0.93018,-0.6325 0.50849,-0.4713 1.15341,-1.3767 0.58291,-0.8309 0.91778,-1.6371 0.34726,-0.8185 0.57051,-1.9223 z"
           style="font-style:italic;font-variant:normal;font-weight:normal;font-stretch:normal;font-size:25.39999962px;font-family:Cambria;-inkscape-font-specification:'Cambria, Italic';font-variant-ligatures:normal;font-variant-caps:normal;font-variant-numeric:normal;font-feature-settings:normal;text-align:start;writing-mode:lr-tb;text-anchor:start;fill:#000000;stroke-width:0.26458332"
           id="path77" />
        <path
           d="m -963.76328,-1028.7589 h 3.90674 l -1.5751,6.3128 q -0.17363,0.6946 -0.31006,1.3891 -0.12402,0.6821 -0.12402,1.2526 0,0.8806 0.29765,1.2651 0.31006,0.3844 0.95498,0.3844 0.53331,0 1.15342,-0.4092 0.62012,-0.4217 1.31465,-1.2899 0.69453,-0.8805 1.09141,-1.6619 0.40927,-0.7813 0.63252,-1.8603 l 1.12861,-5.3827 h 2.14561 l -1.88516,8.4708 q -0.0744,0.3349 -0.17363,0.8806 -0.0992,0.5457 -0.0992,0.893 0,0.5209 0.28525,0.7441 0.29766,0.2109 1.09141,0.2605 l -0.13643,0.6077 h -3.54707 l 0.79375,-3.113 -0.16123,-0.05 q -1.20303,1.7115 -2.33164,2.5425 -1.11621,0.8185 -2.25723,0.8185 -1.20302,0 -1.82314,-0.6573 -0.62012,-0.6697 -0.62012,-1.972 0,-0.3721 0.062,-0.8681 0.0744,-0.5085 0.19844,-1.0542 l 1.0418,-4.4029 q 0.12402,-0.5457 0.16123,-0.8681 0.0496,-0.3225 0.0496,-0.5457 0,-0.5581 -0.29766,-0.7814 -0.29765,-0.2232 -1.0666,-0.2852 z"
           style="font-style:italic;font-variant:normal;font-weight:normal;font-stretch:normal;font-size:25.39999962px;font-family:Cambria;-inkscape-font-specification:'Cambria, Italic';font-variant-ligatures:normal;font-variant-caps:normal;font-variant-numeric:normal;font-feature-settings:normal;text-align:start;writing-mode:lr-tb;text-anchor:start;fill:#000000;stroke-width:0.26458332"
           id="path79" />
        <path
           d="m -945.80469,-1034.6376 h 0.73174 l -3.22461,14.6348 q -0.13642,0.5953 -0.17363,0.9054 -0.0372,0.2976 -0.0372,0.5085 0,0.372 0.12402,0.5829 0.12403,0.2108 0.38448,0.3224 0.26045,0.1117 0.85576,0.1737 l -0.0992,0.6077 h -3.86953 l 3.1998,-14.2379 q 0.12403,-0.5457 0.17364,-0.8186 0.0496,-0.2728 0.0744,-0.5209 0.0248,-0.248 0.0248,-0.434 0,-0.3721 -0.13643,-0.5582 -0.13643,-0.1984 -0.39688,-0.2852 -0.24804,-0.087 -0.90537,-0.124 l 0.14883,-0.645 z"
           style="font-style:italic;font-variant:normal;font-weight:normal;font-stretch:normal;font-size:25.39999962px;font-family:Cambria;-inkscape-font-specification:'Cambria, Italic';font-variant-ligatures:normal;font-variant-caps:normal;font-variant-numeric:normal;font-feature-settings:normal;text-align:start;writing-mode:lr-tb;text-anchor:start;fill:#000000;stroke-width:0.26458332"
           id="path81" />
        <path
           d="m -928.56543,-1025.5715 q 1.15342,0.4589 1.77354,1.3147 0.62011,0.8433 0.62011,1.9224 0,1.2774 -0.47129,2.2944 -0.45888,1.0046 -1.46347,1.7611 -1.00459,0.7566 -2.30684,1.0666 -1.30225,0.3101 -3.21221,0.3101 h -5.51904 l 0.13643,-0.6077 q 0.47129,-0.074 0.70693,-0.2357 0.23564,-0.1736 0.39688,-0.4713 0.16123,-0.2976 0.29765,-0.7193 0.13643,-0.4341 0.40928,-1.6619 l 2.1084,-9.5498 q 0.27285,-1.2403 0.27285,-1.9596 0,-0.6077 -0.28525,-0.8434 -0.28526,-0.2356 -0.93018,-0.2728 l 0.13643,-0.6077 h 6.13916 q 1.86035,0 2.97656,0.3969 1.12861,0.3844 1.64951,1.141 0.5333,0.7565 0.5333,1.8975 0,1.6247 -0.99219,2.8402 -0.99218,1.203 -2.95176,1.8479 z m -3.42305,-0.6697 q 1.28985,0 2.07119,-0.1736 0.79375,-0.1737 1.28985,-0.5209 0.49609,-0.3473 0.88056,-0.8062 0.39688,-0.4713 0.62012,-1.1038 0.23565,-0.6325 0.23565,-1.4883 0,-0.5333 -0.18604,-0.9921 -0.18603,-0.4713 -0.64492,-0.7938 -0.44648,-0.3349 -1.0418,-0.4713 -0.58291,-0.1488 -1.56269,-0.1488 -1.07901,0 -2.00918,0.037 l -1.40147,6.4616 z m -3.54707,8.198 q 0.96739,0.05 1.81075,0.05 1.87275,0 2.88974,-0.4713 1.0294,-0.4713 1.66192,-1.5379 0.63251,-1.0666 0.63251,-2.5549 0,-0.8061 -0.32246,-1.3642 -0.31005,-0.5582 -1.00459,-0.893 -0.68212,-0.3349 -1.88515,-0.3349 h -2.24483 z"
           style="font-style:italic;font-variant:normal;font-weight:normal;font-stretch:normal;font-size:25.39999962px;font-family:Cambria;-inkscape-font-specification:'Cambria, Italic';font-variant-ligatures:normal;font-variant-caps:normal;font-variant-numeric:normal;font-feature-settings:normal;text-align:start;writing-mode:lr-tb;text-anchor:start;fill:#000000;stroke-width:0.26458332"
           id="path83" />
        <path
           d="m -919.59854,-1028.8705 h 0.74415 l -0.86817,3.051 0.14883,0.05 q 1.17822,-1.6247 2.29443,-2.4061 1.12862,-0.7813 2.31924,-0.7813 0.90537,0 1.51309,0.1364 l -0.59532,2.7782 h -1.27744 q -0.0992,-0.645 -0.31006,-0.9798 -0.21084,-0.3349 -0.65732,-0.3349 -0.48369,0 -1.11621,0.4961 -0.63252,0.4961 -1.28984,1.3643 -0.65733,0.8681 -0.99219,1.5999 -0.32246,0.7317 -0.4961,1.6247 l -1.12861,5.3702 h -2.1456 l 1.88515,-8.4708 q 0.26045,-1.1658 0.26045,-1.7736 0,-0.3472 -0.11162,-0.5333 -0.11162,-0.1984 -0.35967,-0.2852 -0.24804,-0.099 -0.84336,-0.1364 l 0.13643,-0.6574 z"
           style="font-style:italic;font-variant:normal;font-weight:normal;font-stretch:normal;font-size:25.39999962px;font-family:Cambria;-inkscape-font-specification:'Cambria, Italic';font-variant-ligatures:normal;font-variant-caps:normal;font-variant-numeric:normal;font-feature-settings:normal;text-align:start;writing-mode:lr-tb;text-anchor:start;fill:#000000;stroke-width:0.26458332"
           id="path85" />
        <path
           d="m -909.34179,-1016.6914 q -1.92237,0 -2.98897,-1.079 -1.0542,-1.079 -1.0542,-3.1006 0,-0.7441 0.18604,-1.7487 0.23564,-1.3022 0.66972,-2.3068 0.55811,-1.2527 1.42627,-2.158 0.88057,-0.9178 2.00918,-1.3891 1.14102,-0.4837 2.44326,-0.4837 1.42627,0 2.33165,0.5457 0.91777,0.5457 1.32705,1.4883 0.40927,0.9302 0.40927,2.158 0,1.1038 -0.31006,2.3564 -0.44648,1.8356 -1.30224,3.113 -0.85576,1.2775 -2.14561,1.9472 -1.28984,0.6573 -3.00136,0.6573 z m -1.87276,-3.6463 q 0,1.3643 0.55811,2.0216 0.57051,0.6449 1.71152,0.6449 1.21543,0 2.15801,-1.0914 0.94258,-1.0914 1.48828,-3.0509 0.5457,-1.972 0.5457,-3.4603 0,-1.3395 -0.5209,-2.0092 -0.52089,-0.6821 -1.6247,-0.6821 -1.28985,0 -2.25723,1.079 -0.95498,1.079 -1.51308,3.0882 -0.54571,2.0092 -0.54571,3.4602 z"
           style="font-style:italic;font-variant:normal;font-weight:normal;font-stretch:normal;font-size:25.39999962px;font-family:Cambria;-inkscape-font-specification:'Cambria, Italic';font-variant-ligatures:normal;font-variant-caps:normal;font-variant-numeric:normal;font-feature-settings:normal;text-align:start;writing-mode:lr-tb;text-anchor:start;fill:#000000;stroke-width:0.26458332"
           id="path87" />
        <path
           d="m -889.67168,-1018.961 q 1.93476,-2.7533 2.93935,-4.7997 1.017,-2.0588 1.017,-3.3487 0,-0.5829 -0.24805,-0.7937 -0.24805,-0.2108 -0.84336,-0.248 l 0.12402,-0.6078 h 3.19981 l 0.33486,0.6202 q -0.43408,1.1038 -0.69453,1.6991 -0.26045,0.5953 -0.68213,1.4386 -0.42168,0.831 -0.89297,1.662 -0.47129,0.8309 -1.11621,1.8355 -0.63252,0.9922 -1.42627,2.1704 -0.79375,1.1658 -1.87275,2.6293 h -1.47588 l -0.5085,-5.1842 q -0.062,-0.6077 -0.13642,-1.5875 -0.062,-0.9797 -0.0868,-1.513 l -0.13642,-0.013 q -0.66973,1.6496 -1.82315,3.6711 -1.15342,2.0216 -2.85254,4.6261 h -1.66191 l -0.94258,-9.3389 q -0.0744,-0.7194 -0.18604,-1.1659 -0.11162,-0.4465 -0.37207,-0.6697 -0.26045,-0.2232 -0.85576,-0.2728 l 0.13643,-0.6078 h 3.24941 l 0.74414,9.7855 q 1.74873,-2.8526 2.51768,-4.3408 0.78135,-1.4883 1.15342,-2.5673 0.37207,-1.0914 0.5705,-2.2696 l 0.13643,-0.6078 h 1.78594 z"
           style="font-style:italic;font-variant:normal;font-weight:normal;font-stretch:normal;font-size:25.39999962px;font-family:Cambria;-inkscape-font-specification:'Cambria, Italic';font-variant-ligatures:normal;font-variant-caps:normal;font-variant-numeric:normal;font-feature-settings:normal;text-align:start;writing-mode:lr-tb;text-anchor:start;fill:#000000;stroke-width:0.26458332"
           id="path89" />
        <path
           d="m -871.61387,-1016.9022 h -3.90674 l 1.5751,-6.3004 q 0.14883,-0.6077 0.28525,-1.3395 0.14883,-0.7317 0.14883,-1.3146 0,-0.8806 -0.31006,-1.2651 -0.29765,-0.3844 -0.94258,-0.3844 -0.52089,0 -1.12861,0.4093 -0.59531,0.3968 -1.25264,1.203 -0.65732,0.7937 -1.11621,1.6247 -0.44648,0.8185 -0.69453,1.9968 l -1.12861,5.3702 h -2.14561 l 1.88516,-8.4708 q 0.062,-0.2853 0.16123,-0.8434 0.11162,-0.5581 0.11162,-0.9302 0,-0.3472 -0.11162,-0.5333 -0.0992,-0.1984 -0.35967,-0.2852 -0.24804,-0.099 -0.85576,-0.1364 l 0.14883,-0.6574 2.81533,-0.1116 h 0.70693 l -0.83095,3.2246 0.14883,0.05 q 1.21542,-1.7115 2.34404,-2.53 1.12861,-0.831 2.25722,-0.831 1.20303,0 1.82315,0.6697 0.62012,0.6574 0.62012,1.9596 0,0.4465 -0.0868,0.9798 -0.0744,0.5209 -0.17363,0.9302 l -1.0418,4.4152 q -0.21084,0.893 -0.21084,1.4139 0,0.372 0.12402,0.5829 0.12403,0.2108 0.38448,0.3224 0.26045,0.1117 0.85576,0.1737 z"
           style="font-style:italic;font-variant:normal;font-weight:normal;font-stretch:normal;font-size:25.39999962px;font-family:Cambria;-inkscape-font-specification:'Cambria, Italic';font-variant-ligatures:normal;font-variant-caps:normal;font-variant-numeric:normal;font-feature-settings:normal;text-align:start;writing-mode:lr-tb;text-anchor:start;fill:#000000;stroke-width:0.26458332"
           id="path91" />
      </g>
    </g>
  </g>
</svg>
