<?xml version="1.0" encoding="UTF-8" standalone="no"?>
<!-- Created with Inkscape (http://www.inkscape.org/) -->

<svg
   xmlns:dc="http://purl.org/dc/elements/1.1/"
   xmlns:cc="http://creativecommons.org/ns#"
   xmlns:rdf="http://www.w3.org/1999/02/22-rdf-syntax-ns#"
   xmlns:svg="http://www.w3.org/2000/svg"
   xmlns="http://www.w3.org/2000/svg"
   xmlns:sodipodi="http://sodipodi.sourceforge.net/DTD/sodipodi-0.dtd"
   xmlns:inkscape="http://www.inkscape.org/namespaces/inkscape"
   width="587.42358mm"
   height="587.30042mm"
   viewBox="0 0 2081.4221 2080.9857"
   id="svg2"
   version="1.1"
   inkscape:version="0.91 r13725"
   sodipodi:docname="realestateone.svg">
  <defs
     id="defs4" />
  <sodipodi:namedview
     id="base"
     pagecolor="#ffffff"
     bordercolor="#666666"
     borderopacity="1.0"
     inkscape:pageopacity="0.0"
     inkscape:pageshadow="2"
     inkscape:zoom="0.12374369"
     inkscape:cx="149.77383"
     inkscape:cy="853.96227"
     inkscape:document-units="px"
     inkscape:current-layer="layer1"
     showgrid="false"
     inkscape:window-width="944"
     inkscape:window-height="1002"
     inkscape:window-x="0"
     inkscape:window-y="0"
     inkscape:window-maximized="0"
     fit-margin-top="0"
     fit-margin-left="0"
     fit-margin-right="0"
     fit-margin-bottom="0" />
  <metadata
     id="metadata7">
    <rdf:RDF>
      <cc:Work
         rdf:about="">
        <dc:format>image/svg+xml</dc:format>
        <dc:type
           rdf:resource="http://purl.org/dc/dcmitype/StillImage" />
        <dc:title />
      </cc:Work>
    </rdf:RDF>
  </metadata>
  <g
     inkscape:label="Layer 1"
     inkscape:groupmode="layer"
     id="layer1"
     transform="translate(526.1728,511.44678)">
    <path
       style="fill:#000000;fill-opacity:1"
       d="m 463.28886,1568.9808 c -131.1501,-6.9573 -254.6379,-36.2909 -371.499996,-88.2468 -184.733,-82.1309 -343.686704,-218.3092 -453.147504,-388.2192 -87.1739,-135.31504 -141.9718,-289.61974 -159.2749,-448.49994 -4.7208,-43.3473 -5.4944,-59.2739 -5.5368,-114 -0.042,-53.42588 0.4141,-64.09118 4.5284,-106 18.8918,-192.4363 93.218,-378.755161 212.225,-532 53.834,-69.32176 117.384,-132.87182 186.7058,-186.70577 153.244804,-119.007 339.5637,-193.33318 532,-212.22504 41.9088,-4.11428 52.5741,-4.56991 106,-4.52843 64.1462,0.0498 97.5386,2.35406 152.4808,10.52206 244.4125,36.33563 465.97224,157.45462 629.99874,344.39839 124.4567,141.845429 208.5228,316.64289 241.4476,502.03879 16.2847,91.69748 20.2311,188.016 11.5338,281.5 -8.4519,90.8451 -29.3306,181.6965 -61.4747,267.5 -105.0979,280.54174 -328.9444,504.38824 -609.48624,609.48614 -95.4404,35.7543 -189.5409,55.9811 -298,64.0545 -18.8006,1.3995 -97.9159,2.0173 -118.5,0.9253 z m 87.144,-517.019 c 20.5573,-2.0902 36.8363,-6.7434 53.0028,-15.1503 21.4894,-11.175 41.4121,-30.2152 50.6723,-48.42804 1.9735,-3.8816 1.9971,-4.2191 0.3907,-5.5829 -1.7232,-1.4629 -12.7925,-7.7857 -13.6304,-7.7857 -0.248,0 -3.1789,3.3384 -6.513,7.4187 -7.0119,8.5812 -16.514,16.06169 -26.7711,21.07554 -22.2623,10.882 -54.117,10.1688 -77.7953,-1.7419 -34.0503,-17.12824 -51.5,-52.13054 -51.5,-103.30354 l 0,-13.4488 89.845,0 89.845,0 1.8922,-2.0909 c 2.7346,-3.0216 3.2573,-20.6475 0.9512,-32.0744 -6.7195,-33.2967 -30.5037,-58.1803 -67.0334,-70.1324 -15.3429,-5.02 -23.5204,-6.1779 -43.5,-6.1597 -26.9013,0.025 -45.1686,4.1168 -66.8687,14.9799 -40.6991,20.374 -67.7606,57.9936 -76.7843,106.7417 -2.4431,13.1982 -2.4531,41.2609 -0.019,52.7358 8.5212,40.1666 31.0587,70.49634 65.6716,88.37744 24.1261,12.4635 50.4983,17.3805 78.144,14.5695 z m -68.144,-187.84024 c 0,-2.9998 6.2509,-24.8107 8.882,-30.9914 11.0528,-25.9645 30.4974,-40.3166 52.6923,-38.8922 18.7366,1.2024 34.6506,16.6966 40.4537,39.3864 2.4804,9.6981 2.6525,23.1542 0.3581,27.9894 l -1.614,3.4011 -50.386,0 c -28.9126,0 -50.3861,-0.3807 -50.3861,-0.8933 z m -599.5,185.83844 C 3.2383639,1039.5797 85.103664,937.03546 67.755664,818.27096 c -8.9616,-61.3509 -42.3846,-108.6364 -94.4788,-133.6648 -22.3642,-10.7447 -45.8299,-16.7199 -73.724404,-18.7726 -88.5935,-6.5194 -169.506,40.9312 -203.072,119.0903 -30.3098,70.5768 -19.4336,152.964 27.2413,206.3518 36.8825,42.18714 96.2686,64.09634 159.0671,58.68434 z m -11.5,-20.9662 c -44.8519,-4.2446 -82.2505,-42.40914 -100.4998,-102.55814 -7.767,-25.5998 -11.0041,-49.732 -10.9888,-81.9208 0.015,-30.7169 2.432,-47.7783 10.2014,-72 13.8545,-43.1926 41.4604,-73.815 75.2872,-83.5138 9.5905,-2.7499 28.1009,-3.7283 38.573,-2.0389 50.699604,8.1787 89.696904,58.8812 102.336004,133.0527 8.7952999,51.6143 2.5586,108.1063 -16.2511,147.2014 -17.2128,35.77634 -45.4682,57.79404 -78.657904,61.29374 -10.8253,1.1415 -12.5981,1.1843 -20,0.4838 z m 357,12.3634 c 2.2572,-2.1275 2.0831,-14.0773 -0.2298,-15.7685 -1.0734,-0.7849 -6.9552,-1.5123 -15.5,-1.9169 -17.8736,-0.8463 -22.0985,-1.5047 -22.6862,-3.5351 -1.6151,-5.5798 -2.7657,-51.82024 -2.3064,-92.69204 0.5317,-47.315 2.0897,-70.5864 5.2285,-78.0985 1.7574,-4.2063 10.5009,-12.9049 18.2654,-18.1718 18.0207,-12.2239 34.4734,-16.2984 51.3596,-12.7192 22.989,4.8727 35.1533,22.8248 40.0187,59.0597 1.7708,13.1879 1.7444,92.1392 -0.036,108 -3.2502,28.95254 -9.3082,37.04714 -28.6283,38.25244 -11.62,0.725 -12.9368,1.8139 -12.9646,10.721 -0.017,5.4187 0.3376,6.9463 1.8724,8.0701 1.5914,1.1653 13.7872,1.2906 76.5,0.7859 46.6276,-0.3752 75.0756,-0.9705 75.8568,-1.5874 0.7962,-0.6287 1.25,-3.6438 1.25,-8.3055 0,-4.759 -0.4372,-7.6 -1.25,-8.1233 -0.6875,-0.4425 -9.9294,-1.071 -20.5376,-1.3965 -10.6081,-0.3256 -19.7173,-1.0216 -20.2425,-1.5469 -1.7588,-1.7587 -2.9356,-46.30244 -2.9557,-111.86984 -0.013,-41.1447 -0.4246,-68.303 -1.1228,-74 -3.395,-27.704 -14.0779,-45.2697 -33.0501,-54.3441 -12.788,-6.1164 -21.2333,-7.6675 -41.3413,-7.5927 -13.6963,0.051 -18.8082,0.4819 -26.3046,2.2176 -23.7545,5.5 -47.3085,18.415 -70.3948,38.5983 l -8.6886,7.5961 -0.306,-21.0256 c -0.2523,-17.3336 -0.5694,-21.2027 -1.806,-22.0343 -0.8766,-0.5894 -4.6173,-0.775 -9,-0.4465 -28.1796,2.1121 -40.9009,2.8474 -67,3.8725 l -29.499996,1.1587 0,8.5 0,8.5 11.2502,0.7033 c 14.735096,0.9212 19.523796,2.9013 22.323796,9.231 3.5544,8.0355 4.0791,22.7402 3.6417,102.0657 -0.4435,80.4217 -0.6248,83.44419 -5.7143,95.27504 -4.1737,9.7021 -13.4666,15.2249 -25.617796,15.2249 -2.8894,0 -6.4077,0.4389 -7.8185,0.9752 -2.4605,0.9355 -2.5651,1.3038 -2.5651,9.0323 0,7.427 0.1759,8.126 2.25,8.9402 1.2733,0.4999 33.503296,0.65 74.249996,0.3459 60.1383,-0.4488 72.2471,-0.7703 73.5,-1.9512 z m 540.2869,-153.81514 c 20.531,-4.3505 37.4372,-21.139 41.6161,-41.3264 6.9326,-33.4894 -18.4164,-65.2008 -52.1192,-65.2008 -15.6687,0 -29.2619,5.6211 -39.5815,16.3678 -24.9812,26.0153 -18.2278,68.2836 13.5734,84.9543 11.9947,6.2877 23.5964,7.9417 36.5112,5.2051 z m -23.2869,-6.9602 c -12.2215,-3.4061 -24.9131,-13.7831 -30.2146,-24.7042 -11.5513,-23.7963 -2.0192,-51.826 21.537,-63.3306 24.7881,-12.1062 52.4696,-1.78 64.3356,23.9997 3.6415,7.9115 4.4474,21.4809 1.8465,31.0896 -4.217,15.5787 -17.6487,28.6687 -33.8409,32.9799 -6.2992,1.6772 -17.5811,1.6608 -23.6636,-0.034 z m 14,-17.067 c 0,-0.9936 -0.9937,-1.5 -2.9433,-1.5 -4.8682,0 -6.0567,-2.8889 -6.0567,-14.7225 0,-14.5681 1.343,-14.1498 11.1521,3.4741 l 7.6521,13.7484 9.0979,0.2875 c 9.9667,0.315 10.958,-0.3515 6.3231,-4.2515 -2.5087,-2.1109 -14.2252,-22.0739 -14.2252,-24.2374 0,-0.4932 1.5741,-1.466 3.4979,-2.1617 12.1316,-4.3868 12.2136,-22.0624 0.1301,-28.0518 -4.5483,-2.2545 -6.2259,-2.4462 -25.25,-2.8853 -17.8122,-0.4112 -20.378,-0.2782 -20.378,1.0565 0,0.8398 1.1409,1.8132 2.5354,2.1632 1.442,0.3619 2.9513,1.7305 3.5,3.1735 0.5305,1.3955 0.958,12.5204 0.9499,24.7221 -0.016,24.3499 -0.5135,26.9507 -5.2585,27.5013 -1.5539,0.1803 -2.7268,0.9331 -2.7268,1.75 0,1.1851 2.7739,1.4336 16,1.4336 13.5556,0 16,-0.2292 16,-1.5 z m -9,-43.5 0,-13 4.0497,0 c 8.0803,0 11.9503,4.0793 11.9503,12.5967 0,8.4092 -4.3678,13.4033 -11.7225,13.4033 l -4.2775,0 0,-13 z m 106.0873,-131.457 c 20.7933,-3.1345 40.9204,-13.5253 69.1341,-35.6911 4.7967,-3.7686 8.8966,-6.8519 9.1108,-6.8519 0.2142,0 0.7123,7.3125 1.1069,16.25 0.3946,8.9375 1.2483,17.375 1.8971,18.75 1.5714,3.3303 5.5611,3.5446 27.7769,1.4918 9.5628,-0.8836 31.8978,-1.8703 49.63344,-2.1925 24.1771,-0.4394 32.5091,-0.9023 33.2957,-1.8501 0.5883,-0.709 0.9193,-4.4892 0.7535,-8.6067 l -0.2957,-7.3425 -16,-0.5455 c -17.6495,-0.6017 -21.2467,-1.6302 -23.9438,-6.8459 -4.3962,-8.5013 -5.2591,-38.0264 -3.0964,-105.9442 1.8632,-58.5094 1.554,-66.9915 -3.0169,-82.76455 -7.72884,-26.67068 -24.22734,-42.90049 -51.63934,-50.79837 -28.8988,-8.32625 -71.3047,-4.59514 -100.3626,8.83045 -23.9026,11.04367 -43.7921,31.41792 -52.0719,53.3409 -3.5883,9.50094 -3.4695,9.83459 4.8809,13.71167 l 7.25,3.3661 2,-2.3296 c 1.1,-1.2813 3.9292,-5.88378 6.2872,-10.22777 13.1349,-24.19785 33.2294,-36.33665 60.0508,-36.27587 37.6679,0.0854 57.162,24.68098 57.162,72.12104 l 0,8.691 -7.75,0.6349 c -34.5117,2.8276 -50.866,5.0826 -68.9216,9.5033 -45.3521,11.1038 -72.9982,30.9201 -82.3571,59.0324 -7.1179,21.3807 -3.7232,48.7376 8.2736,66.6742 14.6303,21.8742 38.7981,30.6993 70.8424,25.8688 z m 12.5058,-41.9629 c -14.8251,-6.2353 -23.2058,-18.6742 -24.3088,-36.0801 -2.3493,-37.0713 27.5474,-59.8916 84.0318,-64.1418 l 8.8162,-0.6634 -0.3162,30.9582 -0.3161,30.9582 -3.9278,7.9436 c -5.669,11.4651 -16.922,22.5396 -28.9682,28.5087 -8.4759,4.2 -9.322,4.4094 -18.9876,4.6985 -8.9277,0.267 -10.8105,0.011 -16.0233,-2.1819 z m 493.18874,40.5679 c 32.0946,-6.9326 58.2993,-22.4273 76.5889,-45.2864 7.9424,-9.9268 13.2353,-19.4396 11.7725,-21.1584 -0.5632,-0.6618 -3.9604,-2.7716 -7.5492,-4.6885 l -6.5252,-3.4854 -8.5651,9.179 c -4.7107,5.0484 -11.7504,11.2965 -15.6435,13.8846 -17.412,11.5755 -38.963,15.795 -60.9792,11.9393 -41.2355,-7.2216 -67.3179,-35.1 -75.344,-80.5322 -0.9231,-5.225 -1.9367,-17.2625 -2.2526,-26.75 l -0.5743,-17.25 89.5342,0 c 86.6863,0 89.6092,-0.061 91.8949,-1.9129 2.2894,-1.8551 2.3607,-2.3616 2.3566,-16.75 0,-17.69626 -1.253,-23.30059 -8.4254,-37.8371 -15.6154,-31.64777 -48.5605,-51.15749 -91.9487,-54.45091 -27.3861,-2.07877 -53.036,2.88281 -77.6217,15.01476 -38.2478,18.87355 -65.8701,55.2226 -75.4039,99.22635 -6.4204,29.6339 -4.4847,58.8927 5.569,84.1786 16.2975,40.9898 51.7694,69.2627 97.3349,77.5811 14.0173,2.559 41.8421,2.1091 55.7818,-0.9019 z m -84.3267,-186.398 c 4.7853,-21.82954 8.0861,-31.09745 15.0811,-42.34476 14.9649,-24.06229 40.6668,-33.40923 61.4328,-22.3411 8.1111,4.32321 16.2748,13.12655 20.5322,22.14093 5.2068,11.0248 6.7305,18.31292 6.3365,30.30913 -0.5264,16.0276 5.2225,14.4858 -54.0117,14.4858 l -49.8641,0 0.4932,-2.25 z m -798.19334,185.8049 c 40.0063,-7.427 67.4022,-24.6214 79.7856,-50.0757 9.8886,-20.3262 9.0457,-44.2632 -2.2266,-63.2384 -4.8922,-8.2352 -16.9505,-19.9289 -28.3599,-27.5024 -5.5214,-3.6651 -20.3714,-12.0074 -33,-18.5384 -32.1764,-16.6405 -39.8998,-21.5633 -48.7808,-31.0923 -19.2084,-20.60975 -10.9615,-52.77926 15.9557,-62.23988 20.4738,-7.19598 44.0356,0.26845 59.4468,18.83291 7.2683,8.7554 10.0069,15.66118 12.6107,31.79927 l 0.8067,5 7.9549,0 c 7.6331,0 7.9831,-0.1011 8.6503,-2.5 0.9598,-3.45025 1.047,-63.21231 0.094,-64.71112 -4.1212,-6.48491 -43.9462,-12.27338 -75.2627,-10.93924 -41.0317,1.74802 -70.5865,12.74255 -90.1464,33.53489 -20.1879,21.45979 -24.5826,52.50577 -11.1004,78.41597 4.9805,9.5713 18.4498,23.0875 31.8098,31.9203 5.5,3.6362 19.225,11.6508 30.5,17.8102 35.1239,19.1876 46.1881,27.8147 52.3487,40.8177 2.7874,5.8832 3.1456,7.6329 3.102,15.1513 -0.044,7.5975 -0.399,9.1801 -3.3428,14.9053 -12.2567,23.8373 -43.4931,32.7953 -69.3058,19.8756 -18.661,-9.3401 -31.6568,-28.0231 -33.4347,-48.0662 -0.3519,-3.9681 -1.0837,-7.7772 -1.6261,-8.4647 -1.4941,-1.8938 -13.2027,-1.6457 -15.1699,0.3214 -1.3654,1.3655 -1.5714,5.9219 -1.5714,34.7595 0,32.9331 0.017,33.1984 2.1618,34.5381 5.8678,3.6645 24.182,7.9915 44.8382,10.5938 15.1331,1.9065 50.8639,1.3937 63.2618,-0.9079 z m 228.7382,-1.3833 c 12.9082,-4.2435 21.0011,-9.1863 30.572,-18.6724 6.1291,-6.0747 8.9437,-9.8061 11.6919,-15.5 4.4316,-9.1819 5.5402,-15.0522 3.2713,-17.3212 -2.0533,-2.0532 -11.8526,-5.1539 -13.8573,-4.3846 -0.8462,0.3247 -3.7963,3.9363 -6.5559,8.0257 -8.6694,12.8476 -16.6238,17.7064 -26.7215,16.3223 -9.5744,-1.3123 -14.2491,-8.3106 -17.1282,-25.6414 -1.5052,-9.0604 -1.7367,-17.4924 -1.6885,-61.5 0.031,-28.05 0.414,-67.52 0.8517,-87.71111 l 0.796,-36.7111 32.3355,-0.2889 c 24.8882,-0.22235 32.6346,-0.5883 33.6343,-1.58889 1.8068,-1.80857 1.7499,-15.34894 -0.074,-17.54631 -1.2239,-1.47497 -4.8173,-1.65369 -33.2497,-1.65369 l -31.8776,0 0.011,-12.75 c 0.01,-7.0125 0.6737,-23.55 1.4843,-36.75 1.8285,-29.77611 1.9222,-43.68299 0.3052,-45.3 -1.7929,-1.79285 -14.847,-1.55582 -17.5225,0.31817 -1.1921,0.835 -5.5501,8.3725 -9.6844,16.75 -15.7544,31.92395 -32.564,52.19911 -51.4654,62.0759 -8.9906,4.69796 -15.7921,6.57843 -27.5892,7.62788 -7.658,0.68124 -10.2595,1.29364 -11.25,2.64823 -0.8416,1.15093 -1.2885,5.12569 -1.2885,11.46017 0,15.00274 -1.1338,14.34987 25.5732,14.72608 l 21.7535,0.30643 -0.9118,61.69354 c -0.5016,33.9315 -0.9126,77.8936 -0.9134,97.6936 0,31.9105 0.2121,36.852 1.8784,43.5 5.1317,20.4728 15.8267,33.8354 31.6529,39.5479 9.996,3.608 16.2262,4.4155 31.4672,4.0785 13.6022,-0.3008 15.8853,-0.6227 24.5,-3.4548 z m 445.50004,0.8642 c 20.2906,-6.4797 36.6229,-19.5541 44.6557,-35.7478 3.4013,-6.8569 4.7579,-14.4823 2.9615,-16.6468 -0.6276,-0.7562 -3.683,-2.1745 -6.7898,-3.1517 -6.5737,-2.0677 -7.3945,-1.7542 -12.058,4.6051 -8.9976,12.2694 -10.4772,13.83 -15.4699,16.318 -11.1933,5.5779 -21.7949,2.0226 -26.3293,-8.8297 -4.9855,-11.932 -6.4091,-40.3322 -5.3424,-106.5829 0.3764,-23.375 0.7266,-54.07003 0.7782,-68.21118 l 0.094,-25.71118 33.0373,-0.28882 c 28.0622,-0.24533 33.18,-0.51471 33.9847,-1.78882 1.6384,-2.59417 1.1942,-15.64096 -0.5934,-17.42857 -1.3633,-1.36325 -5.8207,-1.57143 -33.6463,-1.57143 l -32.0749,0 0.7088,-18.25 c 0.3899,-10.0375 1.3513,-28.6 2.1364,-41.25 1.8416,-29.67023 1.8299,-32.97468 -0.124,-34.92857 -2.4113,-2.41125 -15.794,-2.20606 -18.2803,0.28029 -1.0185,1.01845 -5.0451,8.33095 -8.9481,16.25 -18.4586,37.45227 -38.53,59.14445 -61.7905,66.78035 -3.7484,1.23051 -11.2441,2.62198 -16.6571,3.09216 -5.413,0.47018 -10.4967,1.39843 -11.2972,2.06277 -1.1088,0.9202 -1.4518,3.73908 -1.4401,11.83544 0.01,5.84516 0.3459,11.12269 0.75,11.72786 1.9504,2.92104 5.5873,3.3997 25.8311,3.3997 l 20.7279,0 -0.6402,40.25 c -0.3521,22.1375 -1.1741,62.5454 -1.8266,89.7954 -1.4786,61.7461 -0.6665,71.2593 7.5509,88.4546 6.971,14.5873 18.141,22.9688 36.0916,27.0816 9.594,2.1982 35.0798,1.3028 44,-1.5458 z m -811.26444,-6.6814 c 0.4204,-0.2599 0.7644,-19.9309 0.7644,-43.7134 0,-32.2986 -0.3037,-43.5447 -1.2,-44.441 -1.7329,-1.7329 -15.231,-1.5905 -16.6972,0.1761 -0.6281,0.7569 -2.7147,6.2281 -4.6368,12.1583 -9.1589,28.2577 -23.3162,43.5006 -46.466,50.0289 -5.7952,1.6343 -11.6606,1.8715 -54.0913,2.1878 l -47.5912,0.3547 -0.6554,-15.8029 c -0.3605,-8.6916 -0.6569,-43.6035 -0.6588,-77.582 l 0,-61.779 45.7729,0.279 45.773,0.2791 6.977,3.4162 c 13.6034,6.6608 23.8354,20.3988 27.0379,36.3026 2.4718,12.2746 2.1026,11.909 11.6862,11.5717 l 8.2527,-0.2905 0.276,-63 c 0.1519,-34.65 0.031,-64.0125 -0.269,-65.25 -0.5085,-2.09882 -1.079,-2.25 -8.4909,-2.25 -8.742,0 -10.0161,0.85535 -10.0161,6.72416 0,1.5706 -0.6847,5.53769 -1.5216,8.81574 -5.1295,20.09208 -19.967,35.11257 -37.9121,38.37978 -3.6206,0.6592 -21.8442,1.08032 -46.75,1.08032 l -40.8163,0 0.01,-62.25 c 0,-34.2375 0.2978,-66.66905 0.6554,-72.07011 l 0.6503,-9.8201 46.0946,0.40205 c 39.0234,0.34038 46.9371,0.65387 51.587,2.04355 20.805,6.21789 34.8533,20.94571 42.9426,45.01997 l 2.7468,8.17464 9.4091,0 9.409,0 0.2622,-37.88289 c 0.1877,-27.13037 -0.06,-38.27093 -0.8725,-39.25 -0.9499,-1.14487 -25.1685,-1.36711 -148.9768,-1.36711 -145.143896,0 -147.861196,0.0353 -148.877496,1.93426 -0.5694,1.06384 -1.0352,4.8567 -1.0352,8.42857 0,9.39236 0.394,9.63288 15.8214,9.65698 34.9868,0.0547 40.7954,5.22568 44.3487,39.4806 1.8105,17.45293 1.8601,245.13779 0.056,258.27499 -1.7481,12.7319 -4.3206,19.135 -9.6684,24.0643 -6.3307,5.8355 -11.9609,7.2647 -31.058,7.8841 -8.8,0.2854 -16.7875,0.9301 -17.75,1.4327 -1.4341,0.7489 -1.75,2.2923 -1.75,8.5499 0,13.0787 -20.0539,11.6758 154.985596,10.842 83.3171,-0.3969 151.8296,-0.9342 152.25,-1.194 z m 73.7644,-402.01143 c 12.3638,-1.99598 28.6891,-7.28788 40.0906,-12.99553 20.6992,-10.36203 42.5978,-30.98723 51.4739,-48.48073 2.204,-4.3437 2.2442,-4.72464 0.6432,-6.09481 -1.8045,-1.54435 -12.5917,-7.7719 -13.4623,-7.7719 -0.2812,0 -3.0815,3.0375 -6.223,6.75 -10.7653,12.72222 -23.519,21.30303 -39.0224,26.25478 -10.3801,3.31537 -30.6379,3.8836 -43.51,1.22045 -27.7831,-5.74811 -48.8768,-21.84425 -61.2327,-46.72523 -8.3302,-16.77459 -11.6963,-32.50882 -12.4619,-58.25 l -0.5725,-19.25 90.1155,0 90.1155,0 1.773,-2.70172 c 1.3273,-2.02237 1.8555,-5.22836 2.1009,-12.750001 1.1943,-36.60438 -20.6638,-69.03841 -57.1373,-84.7829 -30.7316,-13.2658903 -71.1756,-14.2972599 -104.3895,-2.6620403 -48.7718,17.0853503 -82.8239,57.6430103 -93.5259,111.3939613 -2.935,14.74094 -3.1672,42.74659 -0.4592,55.37745 5.6673,26.43381 16.2878,47.13007 33.0324,64.37081 30.4395,31.34148 74.9372,44.80033 122.6517,37.09741 z M 336.87546,88.264859 c 6.5677,-36.36758 24.7751,-61.27392 48.5155,-66.36532 8.7102,-1.86799 18.8025,-0.6985 26.4464,3.06459 17.484,8.60733 29.212,30.83378 28.2807,53.59634 -0.2281,5.5734 -0.874,8.8766 -2.1023,10.75 l -1.773,2.70439 -50.0223,0 -50.0222,0 0.6772,-3.75 z m 287.5939,189.670011 c 18.6983,-3.23508 39.4645,-14.21561 65.8195,-34.80329 l 10.5,-8.20228 0.5818,16.29278 c 0.6617,18.53076 1.2475,21.58634 4.2846,22.3486 1.1799,0.29613 13.7912,-0.38279 28.0252,-1.5087 17.1265,-1.35472 34.7729,-2.04712 52.1727,-2.04712 30.7131,0 29.4357,0.41227 29.4357,-9.5 0,-9.43416 -0.1255,-9.49926 -18.3214,-9.50374 -17.1916,-0.004 -19.9731,-0.88241 -23.0002,-7.26159 -4.0092,-8.44864 -4.3891,-33.91394 -2.0402,-136.73467 0.8478,-37.108791 -0.7022,-47.879701 -9.4977,-66.000001 -5.4678,-11.26451 -18.6762,-24.33273 -30.1405,-29.8205 -16.6052,-7.9486303 -33.1248,-10.79774026 -57.3761,-9.8955403 -24.2069,0.90054 -42.351,5.02604 -60.1903,13.6857003 -18.0689,8.77109 -31.8774,20.74171 -42.3791,36.73852 -6.0835,9.26666 -11.7093,23.03014 -10.3163,25.23856 0.5167,0.81915 3.9297,2.80236 7.5845,4.40714 7.8941,3.46623 8.3367,3.26708 12.8768,-5.79405 9.9777,-19.91338 24.9273,-32.86075 43.3965,-37.58439 9.4857,-2.42602 26.0025,-2.62981 35.3109,-0.43566 19.1531,4.5147 32.5839,19.34346 37.5518,41.46022 1.294,5.76098 3.3245,26.852771 3.5199,36.563391 0.013,0.66306 -6.3488,1.52366 -16.8998,2.28601 -62.6952,4.52999 -103.5114,18.22237 -126.8801,42.56377 -9.3453,9.73422 -14.9645,20.17281 -17.7437,32.96192 -2.3472,10.80062 -1.607,30.18145 1.5323,40.12491 8.2242,26.04897 26.4883,41.7442 53.0127,45.55621 6.2265,0.89486 20.698,0.33139 29.1805,-1.1362 z m 13.7488,-40.28738 c -19.2386,-5.18729 -30.8372,-25.19776 -27.9238,-48.17579 4.0169,-31.68213 32.873,-49.55719 86.7838,-53.7586 l 5.2893,-0.41221 -0.2893,31.66236 -0.2893,31.66235 -3.485,6.94463 c -4.4569,8.88147 -17.8672,22.59633 -26.515,27.11721 -11.689,6.11075 -23.0677,7.79195 -33.5707,4.96005 z m 358.3207,30.60633 c 1.2904,-1.14214 1.75,-3.08401 1.75,-7.39395 0,-9.52749 0.203,-9.44704 -25.4365,-10.08156 -14.3559,-0.35527 -22.128,-0.92792 -22.8863,-1.68626 -0.8489,-0.84887 -1.2487,-35.62278 -1.5335,-133.36274 -0.3172,-108.8695713 -0.076,-143.102151 1.3658,-193.877291 0.9631,-33.914559 1.4606,-62.820209 1.1056,-64.234769 -0.4087,-1.62832 -1.5676,-2.80335 -3.1587,-3.2027 -1.3823,-0.34692 -11.1629,0.38249 -21.7348,1.6209 -14.8259,1.73675 -26.7681,2.36024 -52.2216,2.72643 -18.15,0.26111 -33.7875,0.89068 -34.75,1.39905 -1.4098,0.74463 -1.75,2.27364 -1.75,7.86606 0,8.87381 0.9986,9.60349 14,10.22958 19.5577,0.94182 24.8524,8.05917 28.0891,37.758289 1.577,14.47121 2.3611,198.878181 1.0114,237.873911 -2.04,58.93672 -6.2011,85.28738 -14.4634,91.58931 -4.3036,3.28255 -13.4288,5.53678 -22.4129,5.53678 -10.7509,0 -11.2242,0.42451 -11.2242,10.06741 0,7.14891 0.2174,8.07747 2.0501,8.75542 1.1276,0.41712 37.6901,0.57989 81.25,0.36173 69.7184,-0.34917 79.4094,-0.58209 80.9499,-1.9456 z m -915.184296,0.72586 c 1.6646,-0.89085 1.9343,-2.14916 1.9343,-9.02475 0,-7.36901 -0.1748,-8.05506 -2.25,-8.83266 -1.2375,-0.4637 -11.25,-1.09319 -22.25,-1.39887 -22.1238,-0.61479 -26.1675,-1.44271 -31.0902,-6.36543 -7.5807,-7.58066 -8.3915,-16.5165 -8.4016,-92.59311 l -0.01,-61.750001 16.75,0.002 16.75,0.002 14.7446,22.897091 c 36.543196,56.74818 61.423096,99.45611 82.635996,141.84968 l 8.1312,16.25 53.2716,0 c 46.5965,0 53.5501,-0.19506 55.4941,-1.5567 1.9525,-1.36761 2.2225,-2.44602 2.2225,-8.87756 0,-4.66441 -0.4536,-7.67845 -1.25,-8.30635 -0.6875,-0.54203 -4.2993,-1.2563 -8.0263,-1.58727 -7.9451,-0.70558 -13.851,-3.08897 -19.1219,-7.71691 -10.059,-8.83266 -47.0901,-61.61606 -90.12,-128.45598 -7.0816,-11 -15.0675,-23.081951 -17.7466,-26.848771 -2.679,-3.76682 -4.7072,-7.01262 -4.5069,-7.21287 0.2003,-0.20026 4.6183,-1.75219 9.8179,-3.44875 11.6806,-3.81127 27.6314,-11.34765 36.0838,-17.0488 17.523,-11.81937 31.0014,-29.73493 35.7697,-47.54555 2.0315,-7.5877803 2.9431,-21.61169 2.0085,-30.89526 -1.9673,-19.53981 -8.8316,-34.4594 -21.8816,-47.55952 -4.6898,-4.70773 -11.1969,-10.29911 -14.4604,-12.4253 -11.8005,-7.68816 -29.5221,-14.189479 -49.5664,-18.183849 -7.6248,-1.51944 -20.3777,-1.73036 -123.8542961,-2.04845 -86.3969999,-0.26559 -115.7047039,-0.0638 -116.7500039,0.8037 -1.8485,1.53411 -1.9718,16.426539 -0.1457,17.595679 0.6875,0.44016 9.5978,0.87522 19.800604,0.96679 10.4819,0.0941 20.4459,0.67684 22.908,1.33981 8.445,2.27399 11.6489,8.08171 14.2677,25.86278 0.9809,6.66041 1.2737,38.6456 1.2737,139.14836 0,119.624221 -0.1458,131.368451 -1.7492,140.920681 -2.0553,12.24463 -4.0652,16.84163 -8.4719,19.37665 -3.953,2.27404 -16.8805,3.63831 -34.828904,3.67557 -8.7837,0.0182 -13.4423,0.4194 -14.25,1.2271 -1.6033,1.60327 -1.6033,15.99673 0,17.6 1.591,1.59102 193.900004,1.75202 196.865704,0.16482 z M 19.288864,-5.0165209 c 0,-68.6296901 0.1055,-73.0721001 1.75,-73.7069201 0.9625,-0.37154 11.875,-0.68401 24.25,-0.69438 17.6482,-0.0148 24.4132,0.36519 31.3724,1.7621 29.219696,5.86521 47.647496,20.19749 54.625396,42.48515 4.6745,14.93045 4.696,35.29857974 0.053,50.2515 -7.2562,23.36878 -27.659,39.92578 -58.550696,47.51421 -12.2907,3.01916 -31.8876,5.41972 -44.2439,5.41972 l -9.2561,0 0,-73.0313799 z"
       id="path3347"
       inkscape:connector-curvature="0" />
  </g>
</svg>
